<svg width="512" height="512" viewBox="0 0 512 512" fill="none" xmlns="http://www.w3.org/2000/svg">
<path d="M307.2 256C307.2 269.579 301.806 282.602 292.204 292.204C282.602 301.806 269.579 307.2 256 307.2C242.421 307.2 229.398 301.806 219.796 292.204C210.194 282.602 204.8 269.579 204.8 256C204.8 242.421 210.194 229.398 219.796 219.796C229.398 210.194 242.421 204.8 256 204.8C269.579 204.8 282.602 210.194 292.204 219.796C301.806 229.398 307.2 242.421 307.2 256Z" fill="currentColor"/>
<path fill-rule="evenodd" clip-rule="evenodd" d="M256 34.1333C197.157 34.1333 140.725 57.5085 99.1166 99.1166C57.5085 140.725 34.1333 197.157 34.1333 256C34.1333 314.843 57.5085 371.275 99.1166 412.883C140.725 454.492 197.157 477.867 256 477.867C314.843 477.867 371.275 454.492 412.883 412.883C454.492 371.275 477.867 314.843 477.867 256C477.867 197.157 454.492 140.725 412.883 99.1166C371.275 57.5085 314.843 34.1333 256 34.1333ZM68.2667 256C68.2667 206.21 88.0457 158.459 123.252 123.252C158.459 88.0457 206.21 68.2667 256 68.2667C305.79 68.2667 353.541 88.0457 388.748 123.252C423.954 158.459 443.733 206.21 443.733 256C443.733 305.79 423.954 353.541 388.748 388.748C353.541 423.954 305.79 443.733 256 443.733C206.21 443.733 158.459 423.954 123.252 388.748C88.0457 353.541 68.2667 305.79 68.2667 256Z" fill="currentColor"/>
</svg>
