<svg width="512" height="512" viewBox="0 0 512 512" fill="none" xmlns="http://www.w3.org/2000/svg">
<path d="M405.333 42.6667H106.667C89.6928 42.6667 73.4142 49.4095 61.4119 61.4118C49.4095 73.4142 42.6667 89.6928 42.6667 106.667V405.333C42.6667 422.307 49.4095 438.586 61.4119 450.588C73.4142 462.591 89.6928 469.333 106.667 469.333H405.333C422.307 469.333 438.586 462.591 450.588 450.588C462.591 438.586 469.333 422.307 469.333 405.333V106.667C469.333 89.6928 462.591 73.4142 450.588 61.4118C438.586 49.4095 422.307 42.6667 405.333 42.6667ZM377.813 185.387L218.667 354.773C216.659 356.879 214.242 358.553 211.564 359.69C208.886 360.827 206.003 361.405 203.093 361.387C200.184 361.405 197.301 360.827 194.623 359.69C191.945 358.553 189.528 356.879 187.52 354.773L134.613 298.667C132.453 296.686 130.724 294.282 129.534 291.604C128.344 288.927 127.718 286.032 127.696 283.102C127.674 280.171 128.256 277.268 129.405 274.572C130.555 271.876 132.247 269.446 134.377 267.434C136.508 265.421 139.03 263.869 141.786 262.874C144.542 261.879 147.474 261.463 150.399 261.651C153.323 261.839 156.178 262.628 158.784 263.968C161.39 265.308 163.692 267.171 165.547 269.44L203.093 309.333L346.667 156.587C348.65 154.587 351.009 153 353.609 151.917C356.209 150.834 358.997 150.276 361.813 150.276C364.63 150.276 367.418 150.834 370.018 151.917C372.617 153 374.977 154.587 376.96 156.587C380.676 160.412 382.825 165.49 382.983 170.821C383.141 176.152 381.297 181.348 377.813 185.387Z" fill="currentColor"/>
</svg>
