<svg width="512" height="512" viewBox="0 0 512 512" fill="none" xmlns="http://www.w3.org/2000/svg">
<path fill-rule="evenodd" clip-rule="evenodd" d="M256 26.6667C176.576 26.6667 112 91.8187 112 172.181C112 199.403 123.989 233.173 141.44 266.859C179.861 341.035 243.861 415.744 243.861 415.744C245.363 417.493 247.226 418.897 249.321 419.86C251.416 420.822 253.694 421.32 256 421.32C258.306 421.32 260.584 420.822 262.679 419.86C264.774 418.897 266.637 417.493 268.139 415.744C268.139 415.744 332.139 341.035 370.56 266.859C388.011 233.173 400 199.403 400 172.181C400 91.8187 335.424 26.6667 256 26.6667ZM256 112C240.715 112.412 226.194 118.774 215.528 129.731C204.862 140.688 198.894 155.376 198.894 170.667C198.894 185.958 204.862 200.645 215.528 211.602C226.194 222.559 240.715 228.921 256 229.333C271.285 228.921 285.806 222.559 296.472 211.602C307.138 200.645 313.106 185.958 313.106 170.667C313.106 155.376 307.138 140.688 296.472 129.731C285.806 118.774 271.285 112.412 256 112Z" fill="currentColor"/>
<path fill-rule="evenodd" clip-rule="evenodd" d="M358.059 370.709C375.403 375.915 389.696 382.357 399.573 389.909C405.973 394.773 410.667 399.531 410.667 405.333C410.667 408.747 408.725 411.84 405.995 414.933C401.472 420.032 394.752 424.619 386.432 428.885C357.035 443.925 309.504 453.333 256 453.333C202.496 453.333 154.965 443.925 125.568 428.885C117.248 424.619 110.528 420.032 106.005 414.933C103.275 411.84 101.333 408.747 101.333 405.333C101.333 399.531 106.027 394.773 112.427 389.909C122.304 382.357 136.597 375.915 153.941 370.709C158.007 369.487 161.42 366.7 163.43 362.962C165.441 359.223 165.883 354.839 164.661 350.773C163.439 346.708 160.652 343.295 156.913 341.284C153.175 339.274 148.791 338.831 144.725 340.053C118.315 348.011 97.792 358.912 85.4613 370.965C74.624 381.525 69.3333 393.344 69.3333 405.333C69.3333 420.309 77.8026 435.243 95.0186 447.701C125.227 469.547 185.899 485.333 256 485.333C326.101 485.333 386.773 469.547 416.981 447.701C434.197 435.243 442.667 420.309 442.667 405.333C442.667 393.344 437.376 381.525 426.539 370.965C414.208 358.912 393.685 348.011 367.275 340.053C365.262 339.448 363.149 339.245 361.058 339.457C358.967 339.668 356.938 340.289 355.086 341.284C353.235 342.28 351.598 343.63 350.269 345.258C348.939 346.886 347.944 348.76 347.339 350.773C346.734 352.786 346.531 354.899 346.742 356.99C346.953 359.081 347.574 361.11 348.57 362.962C349.565 364.813 350.916 366.45 352.544 367.779C354.172 369.109 356.046 370.104 358.059 370.709Z" fill="currentColor"/>
</svg>
