<svg width="512" height="512" viewBox="0 0 512 512" fill="none" xmlns="http://www.w3.org/2000/svg">
<path fill-rule="evenodd" clip-rule="evenodd" d="M230.238 385.799C229.176 385.799 228.157 386.22 227.405 386.97C226.653 387.721 226.229 388.739 226.227 389.801V410.228C226.229 411.29 226.653 412.308 227.405 413.059C228.157 413.809 229.176 414.23 230.238 414.23C232.452 414.23 234.202 412.432 234.202 410.228V389.801C234.203 387.596 232.453 385.799 230.238 385.799ZM258.901 119.023L258.955 119.067L436.796 263.252L414.9 290.239L250.324 156.813C249.613 156.24 248.727 155.927 247.814 155.927C246.9 155.927 246.014 156.24 245.303 156.813L80.727 290.239L58.831 263.252L236.866 118.912C243.21 113.769 252.272 113.729 258.631 118.808L258.641 118.812L258.901 119.023ZM333.724 169.388L360.24 190.911V144.42H333.724V169.388ZM349.112 86.403L398.326 58C400.24 56.895 400.865 54.445 399.767 52.538C399.237 51.622 398.365 50.9538 397.343 50.6802C396.321 50.4067 395.232 50.5501 394.315 51.079L347.201 78.298L351.892 69.207C359.91 53.67 372.076 40.985 387.22 32.242C406.514 21.102 428.789 17.39 450.627 21.802L453.959 22.475L452.877 25.697C445.783 46.824 431.395 64.249 412.102 75.397C395.967 84.72 377.134 88.883 358.576 87.241L349.112 86.403ZM345.354 78.093L298.569 51.08C296.653 49.974 294.219 50.648 293.109 52.552C292.844 53.0043 292.672 53.5046 292.601 54.0239C292.531 54.5432 292.564 55.0714 292.699 55.5778C292.833 56.0843 293.067 56.5591 293.386 56.9748C293.705 57.3906 294.104 57.739 294.558 58L343.686 86.359L334.269 87.217C326.798 87.8984 319.272 87.6556 311.861 86.494C300.814 84.7552 290.182 80.9936 280.5 75.398C261.203 64.255 246.818 46.824 239.724 25.697L238.642 22.475L241.974 21.802C263.778 17.397 286.126 21.107 305.383 32.243C320.426 40.942 332.594 53.55 340.611 68.969L345.354 78.093ZM315.209 339.76V372.991H296.41V344.233C296.41 341.779 298.411 339.76 300.869 339.76H315.209ZM323.231 339.76H337.571C340.025 339.76 342.077 341.776 342.077 344.233V372.991H323.231V339.76ZM342.077 380.99V409.748C342.077 412.201 340.021 414.211 337.571 414.211H323.231V380.99H342.077ZM315.209 414.211H300.869C298.417 414.211 296.41 412.197 296.41 409.748V380.99H315.209V414.211ZM248.155 492.021H163.808V323.933C163.808 322.903 164.011 321.883 164.406 320.931C164.8 319.98 165.379 319.115 166.107 318.387C166.836 317.658 167.701 317.081 168.653 316.687C169.605 316.293 170.625 316.091 171.655 316.091H240.308C241.338 316.09 242.358 316.293 243.31 316.687C244.262 317.081 245.127 317.658 245.856 318.386C246.585 319.115 247.163 319.979 247.557 320.931C247.952 321.883 248.155 322.903 248.155 323.933V492.021Z" fill="#A4D4FF"/>
<path fill-rule="evenodd" clip-rule="evenodd" d="M237.202 389.801V410.228C237.202 414.101 234.096 417.23 230.238 417.23C226.379 417.23 223.227 414.101 223.227 410.228V389.801C223.227 385.928 226.38 382.799 230.238 382.799C234.097 382.799 237.202 385.928 237.202 389.801ZM300.868 342.76H312.208V369.991H299.41V344.233C299.41 343.433 300.068 342.76 300.868 342.76ZM339.077 344.233V369.991H326.231V342.76H337.571C338.371 342.76 339.077 343.433 339.077 344.233ZM337.571 411.211H326.231V383.99H339.077V409.748C339.077 410.538 338.371 411.211 337.571 411.211ZM299.41 409.748V383.99H312.209V411.211H300.869C300.483 411.207 300.114 411.051 299.841 410.777C299.568 410.504 299.413 410.134 299.41 409.748ZM300.868 425.21H337.571C346.135 425.21 353.052 418.279 353.052 409.748V344.233C353.052 335.702 346.135 328.761 337.571 328.761H300.868C292.351 328.761 285.387 335.702 285.387 344.233V409.748C285.387 418.279 292.351 425.21 300.868 425.21ZM281.999 72.799C263.224 61.962 249.39 45.06 242.567 24.742C263.601 20.493 285.152 23.989 303.88 34.84C318.514 43.282 330.231 55.511 337.948 70.353L300.069 48.482C296.728 46.553 292.446 47.691 290.517 51.042C288.541 54.393 289.717 58.67 293.058 60.599L333.996 84.23C315.898 85.891 297.731 81.8971 281.999 72.799ZM388.72 34.84C407.495 23.989 429 20.493 450.033 24.742C443.21 45.06 429.376 61.963 410.601 72.799C394.838 81.918 376.815 85.843 358.84 84.252L399.825 60.597C403.166 58.668 404.295 54.391 402.366 51.04C400.437 47.69 396.155 46.551 392.814 48.48L354.558 70.582C362.275 55.629 373.992 43.334 388.72 34.84ZM357.24 184.612L336.724 167.959V147.419H357.24V184.612ZM414.459 286.021L432.576 263.693L257.107 121.431C257.06 121.412 257.06 121.379 257.013 121.36C251.743 116.951 244.073 116.899 238.756 121.242L63.051 263.693L81.167 286.021L243.413 154.483C244.654 153.467 246.209 152.912 247.812 152.912C249.416 152.912 250.971 153.467 252.212 154.483L414.459 286.021ZM374.557 478.081V271.683L247.79 168.929L121.07 271.683V478.081C121.07 484.109 125.964 489.021 131.987 489.021H152.832V323.933C152.832 313.539 161.255 305.092 171.654 305.092H240.307C250.706 305.092 259.129 313.538 259.129 323.933V489.022H363.591C369.616 489.022 374.557 484.109 374.557 478.081ZM245.155 489.022V323.933C245.155 323.297 245.03 322.667 244.786 322.079C244.542 321.491 244.185 320.957 243.735 320.507C243.285 320.058 242.751 319.701 242.162 319.458C241.574 319.215 240.944 319.09 240.308 319.091H171.655C171.019 319.09 170.389 319.215 169.8 319.458C169.212 319.701 168.678 320.058 168.228 320.507C167.778 320.957 167.421 321.491 167.177 322.079C166.933 322.667 166.808 323.297 166.808 323.933V489.022H245.155ZM366.651 98.623C384.391 98.623 401.989 93.96 417.612 84.93C441.752 70.992 458.786 48.42 465.608 21.382C466.502 17.712 464.338 13.98 460.714 12.94C433.893 5.308 405.848 8.78 381.708 22.709C367.121 31.122 355.075 42.75 346.276 56.768C337.524 42.75 325.478 31.123 310.891 22.709C286.752 8.781 258.707 5.308 231.885 12.94C228.262 13.98 226.097 17.711 226.991 21.382C233.814 48.42 250.848 70.992 274.987 84.93C294.562 96.218 317.101 100.642 339.311 97.71V133.42H318.748C314.89 133.42 311.784 136.558 311.784 140.422C311.784 144.29 314.89 147.419 318.748 147.419H322.748V156.609L265.952 110.589C255.552 101.921 240.401 101.832 229.907 110.368L48.794 257.223C48.0773 257.8 47.4817 258.513 47.0415 259.322C46.6013 260.13 46.3252 261.017 46.229 261.932C46.1328 262.848 46.2185 263.773 46.481 264.655C46.7436 265.537 47.1779 266.358 47.759 267.072L74.675 300.269C75.844 301.71 77.5353 302.63 79.38 302.829C79.662 302.848 79.898 302.872 80.133 302.872C81.733 302.872 83.286 302.321 84.509 301.3L107.049 283.028V478.081C107.049 491.83 118.248 503.02 131.988 503.02H363.594C377.381 503.02 388.533 491.83 388.533 478.081V283.028L411.072 301.3C412.512 302.468 414.356 303.018 416.201 302.829C418.083 302.631 419.777 301.719 420.907 300.269L447.87 267.072C450.27 264.06 449.799 259.651 446.835 257.223L371.264 195.962V147.42H375.217C379.075 147.42 382.228 144.291 382.228 140.423C382.228 136.56 379.075 133.421 375.217 133.421H353.289V97.729C357.758 98.317 362.181 98.623 366.651 98.623Z" fill="#21409A"/>
</svg>
