<svg width="512" height="512" viewBox="0 0 512 512" fill="none" xmlns="http://www.w3.org/2000/svg">
<path d="M56 160C80.3005 160 100 133.137 100 100C100 66.8629 80.3005 40 56 40C31.6995 40 12 66.8629 12 100C12 133.137 31.6995 160 56 160Z" fill="#31B4F6"/>
<path d="M56 160C80.3005 160 100 133.137 100 100C100 66.8629 80.3005 40 56 40C31.6995 40 12 66.8629 12 100C12 133.137 31.6995 160 56 160Z" fill="#0077C6"/>
<path d="M460 160C484.301 160 504 133.137 504 100C504 66.8629 484.301 40 460 40C435.699 40 416 66.8629 416 100C416 133.137 435.699 160 460 160Z" fill="#31B4F6"/>
<path d="M460 160C484.301 160 504 133.137 504 100C504 66.8629 484.301 40 460 40C435.699 40 416 66.8629 416 100C416 133.137 435.699 160 460 160Z" fill="#0077C6"/>
<path d="M344 40H368V80H344V40Z" fill="#0077C6"/>
<path d="M431.15 240H504C504 327.35 456.61 404.15 388.17 448.33C349.3 473.43 303.63 488 256 488C164.74 488 75.53 434.5 35.59 355.96C17.3605 320.029 7.90548 280.29 8 240H431.15Z" fill="#76C8F3"/>
<path d="M390.86 251.19C391.712 252.973 392.005 254.971 391.702 256.923C391.398 258.875 390.512 260.69 389.16 262.13C388.34 263.007 387.348 263.707 386.246 264.185C385.144 264.663 383.956 264.91 382.755 264.91C381.554 264.91 380.366 264.663 379.264 264.185C378.162 263.707 377.17 263.007 376.35 262.13C375.525 261.258 374.532 260.563 373.43 260.086C372.328 259.61 371.14 259.363 369.94 259.36C368.529 259.358 367.138 259.702 365.89 260.36C362.427 262.183 358.573 263.137 354.66 263.14C351.329 263.127 348.035 262.436 344.978 261.111C341.922 259.786 339.167 257.853 336.88 255.43C334.409 252.819 333.041 249.355 333.06 245.76C333.056 243.776 333.468 241.814 334.27 240H385.23C385.947 241.11 386.592 242.266 387.16 243.46L390.86 251.19ZM431.15 240H504C504 327.35 456.61 404.15 388.17 448.33C388.2 442.76 388.4 435.64 388.4 433.92C388.398 431.81 388.535 429.702 388.81 427.61C388.997 426.434 388.914 425.232 388.567 424.093C388.22 422.954 387.619 421.909 386.808 421.038C385.998 420.166 385 419.489 383.89 419.06C382.779 418.631 381.586 418.46 380.4 418.56C377.34 418.91 374.16 419.28 371.81 419.55C371.488 419.59 371.164 419.61 370.84 419.61C368.857 419.603 366.941 418.894 365.43 417.61C364.357 416.685 363.508 415.528 362.95 414.226C362.392 412.924 362.138 411.511 362.209 410.097C362.279 408.682 362.672 407.301 363.357 406.061C364.041 404.821 365 403.753 366.16 402.94L372.95 398.36C375.507 396.625 377.769 394.491 379.65 392.04C381.23 389.969 382.085 387.435 382.08 384.83C382.09 383.119 381.726 381.427 381.012 379.872C380.299 378.318 379.254 376.938 377.95 375.83C375.648 373.873 374.196 371.097 373.9 368.09L371.48 344.94C371.42 344.369 371.39 343.795 371.39 343.22C371.386 339.649 372.552 336.175 374.71 333.33C376.408 331.064 378.723 329.335 381.378 328.351C384.033 327.367 386.915 327.168 389.68 327.78L404.82 331.2C406.907 331.675 409.04 331.913 411.18 331.91C415.529 331.906 419.821 330.925 423.74 329.04C426.14 327.81 428.201 326.007 429.741 323.792C431.28 321.577 432.251 319.017 432.567 316.338C432.883 313.659 432.535 310.944 431.554 308.431C430.573 305.918 428.988 303.686 426.94 301.93C425.361 300.594 424.057 298.964 423.1 297.13C422.126 295.272 421.515 293.246 421.3 291.16C421.2 290.197 421.15 289.229 421.15 288.26C421.12 283.873 422.164 279.545 424.191 275.655C426.218 271.764 429.167 268.429 432.78 265.94C434.891 264.464 436.423 262.301 437.114 259.82C437.806 257.339 437.613 254.695 436.57 252.34L431.15 240ZM275.33 274.66C275.996 276.893 276.337 279.21 276.34 281.54C276.34 291.37 270.29 300.47 260.85 303.55C248.62 307.55 240.78 320.03 242.13 333.37L244.71 358.98C245.012 362.021 246.038 364.946 247.7 367.51C249.321 370.033 251.544 372.112 254.17 373.56C257.739 375.516 260.963 378.047 263.71 381.05C270.43 388.433 274.141 398.066 274.11 408.05C274.109 410.143 273.949 412.232 273.63 414.3C273.039 418.247 270.933 421.809 267.76 424.23L256.28 432.89C254.515 434.243 252.354 434.977 250.13 434.98C247.83 434.954 245.599 434.183 243.775 432.782C241.95 431.381 240.629 429.426 240.01 427.21C238.602 422.489 239.041 417.409 241.24 413C241.86 411.769 242.182 410.409 242.18 409.03C242.194 407.48 241.793 405.955 241.017 404.613C240.242 403.271 239.12 402.161 237.77 401.4C231.509 397.943 226.254 392.919 222.52 386.82C218.703 380.608 216.499 373.541 216.11 366.26C215.968 363.593 215.473 360.957 214.64 358.42C213.085 353.484 210.213 349.066 206.332 345.642C202.452 342.219 197.711 339.918 192.62 338.99L182.22 337.22C181.82 337.15 181.42 337.09 181.02 337.05C176.27 336.488 171.455 337.179 167.054 339.052C162.653 340.926 158.818 343.917 155.93 347.73L144.89 362.01C143.69 363.563 142.268 364.931 140.67 366.07C139.092 367.196 137.352 368.076 135.51 368.68C122.89 372.8 110.12 362.9 110.12 349.14V348.26C110.131 343.214 108.61 338.284 105.76 334.12C95.4668 319.094 81.7988 306.686 65.85 297.89C64.6237 297.217 63.2502 296.856 61.8513 296.841C60.4523 296.825 59.0711 297.154 57.83 297.8C53.4991 300.055 49.7638 303.304 46.93 307.28C43.0542 312.713 40.9232 319.197 40.82 325.87C40.4225 336.088 38.6636 346.207 35.59 355.96C17.3605 320.029 7.90548 280.29 8 240H256.59C257.109 244.984 259.212 249.669 262.59 253.37L264.4 255.34C266.913 258.079 269.107 261.095 270.94 264.33C272.783 267.599 274.255 271.064 275.33 274.66ZM305.683 359.638C307.989 357.182 309.272 353.939 309.272 350.57C309.272 347.201 307.989 343.958 305.683 341.502C304.745 340.52 303.968 339.395 303.383 338.169L296.869 324.536C296.09 322.907 295.822 321.081 296.098 319.296C296.375 317.512 297.184 315.853 298.419 314.536C299.169 313.735 300.076 313.097 301.082 312.66C302.089 312.224 303.175 311.999 304.272 311.999C305.369 311.999 306.455 312.224 307.462 312.66C308.468 313.097 309.375 313.735 310.125 314.536L310.172 314.585C311.467 315.957 313.028 317.051 314.759 317.802C316.491 318.552 318.356 318.943 320.243 318.951C328.109 318.951 334.485 325.624 334.485 333.856V334.466C334.47 336.114 334.905 337.734 335.742 339.153C336.58 340.572 337.79 341.735 339.24 342.517C340.68 343.311 341.88 344.477 342.716 345.893C343.552 347.309 343.992 348.923 343.992 350.567C343.992 352.211 343.552 353.825 342.716 355.241C341.88 356.657 340.68 357.823 339.24 358.617L337.05 359.763C335.366 360.654 334.016 362.066 333.203 363.789L331.398 367.567C329.584 371.565 326.348 374.747 322.319 376.493C318.29 378.239 313.756 378.426 309.598 377.016C302.53 374.552 300.41 365.156 305.683 359.638Z" fill="#C5E4F6"/>
<path d="M368 224H144V91.852L256 40L368 91.852V224Z" fill="#76C8F3"/>
<path d="M387.742 105.048L256 43.052L124.258 105.048L115.742 86.952L256 20.948L396.258 86.952L387.742 105.048ZM8 224H504V240H8V224Z" fill="#0077C6"/>
<path d="M280 96C280.004 97.3407 279.89 98.6792 279.66 100C278.831 104.913 276.492 109.446 272.969 112.969C269.446 116.492 264.913 118.831 260 119.66C257.353 120.113 254.647 120.113 252 119.66C247.087 118.831 242.554 116.492 239.031 112.969C235.508 109.446 233.169 104.913 232.34 100C231.887 97.3526 231.887 94.6474 232.34 92C233.169 87.0871 235.508 82.5543 239.031 79.0312C242.554 75.5081 247.087 73.1694 252 72.34C254.647 71.8867 257.353 71.8867 260 72.34C264.913 73.1694 269.446 75.5081 272.969 79.0312C276.492 82.5543 278.831 87.0871 279.66 92C279.89 93.3209 280.004 94.6593 280 96Z" fill="#0077C6"/>
<path d="M232 136H280V224H232V136Z" fill="#31B4F6"/>
<path d="M248 184C250.209 184 252 182.209 252 180C252 177.791 250.209 176 248 176C245.791 176 244 177.791 244 180C244 182.209 245.791 184 248 184Z" fill="#31B4F6"/>
<path d="M296 152H352V176H296V152ZM160 152H216V176H160V152Z" fill="#0077C6"/>
<path d="M296 136H352V152H296V136ZM160 136H216V152H160V136Z" fill="#31B4F6"/>
<path d="M496 30.158L485.3 33.106C480.842 34.3347 476.829 36.8148 473.736 40.2529C470.643 43.6909 468.599 47.943 467.847 52.506L467.273 56L470.81 55.8C475.427 55.5327 479.87 53.9487 483.615 51.2353C487.36 48.5219 490.249 44.7928 491.941 40.489L496 30.158ZM424 32L411.189 33.216C405.85 33.7231 400.767 35.7488 396.543 39.0535C392.319 42.3582 389.129 46.8037 387.352 51.864L385.991 55.74L390.071 56.217C395.398 56.8403 400.792 55.9247 405.616 53.5785C410.439 51.2323 414.489 47.5538 417.287 42.978L424 32ZM124.416 20.052L114.3 24.608C110.083 26.507 106.499 29.574 103.97 33.4461C101.442 37.3183 100.076 41.8337 100.033 46.458L100 50L103.463 49.254C107.984 48.2807 112.131 46.0329 115.415 42.7765C118.698 39.5202 120.98 35.3915 121.991 30.879L124.416 20.052ZM88 112L94.158 123.3C96.7251 128.009 100.587 131.885 105.287 134.468C109.988 137.052 115.329 138.235 120.681 137.878L124.781 137.604L123.614 133.665C122.091 128.522 119.127 123.923 115.073 120.413C111.018 116.902 106.043 114.626 100.735 113.854L88 112Z" fill="#C5E4F6"/>
<path d="M60 224C57.1227 224 54.3413 222.966 52.1627 221.086C49.9841 219.206 48.5534 216.607 48.1312 213.761C47.7091 210.914 48.3236 208.011 49.8629 205.58C51.4022 203.149 53.7637 201.352 56.517 200.517C57.0043 198.91 57.8234 197.423 58.9214 196.152C60.0195 194.882 61.3719 193.856 62.8914 193.141C64.4109 192.426 66.0635 192.038 67.7425 192.002C69.4214 191.965 71.0892 192.282 72.638 192.931C71.9577 190.307 71.8201 187.572 72.2337 184.893C72.6473 182.214 73.6033 179.648 75.0434 177.351C76.4834 175.055 78.3771 173.076 80.6084 171.537C82.8397 169.998 85.3617 168.93 88.02 168.4C88.02 168.267 88 168.137 88 168C87.9985 164.222 89.3343 160.566 91.7706 157.679C94.207 154.793 97.5867 152.861 101.311 152.228C105.035 151.595 108.863 152.3 112.117 154.219C115.37 156.138 117.84 159.147 119.087 162.713C121.65 160.966 124.668 160.005 127.769 159.947C130.871 159.89 133.921 160.739 136.547 162.39C139.173 164.042 141.26 166.424 142.552 169.244C143.844 172.064 144.285 175.2 143.821 178.267C146.872 176.441 150.446 175.685 153.975 176.12C157.505 176.554 160.788 178.153 163.306 180.664C165.824 183.176 167.432 186.455 167.875 189.983C168.319 193.511 167.573 197.087 165.755 200.143C168.751 200.586 171.468 202.146 173.362 204.51C175.255 206.874 176.184 209.866 175.961 212.887C175.739 215.907 174.383 218.732 172.164 220.793C169.945 222.855 167.029 224 164 224H60ZM452 224C454.877 224 457.659 222.966 459.837 221.086C462.016 219.206 463.447 216.607 463.869 213.761C464.291 210.914 463.676 208.011 462.137 205.58C460.598 203.149 458.236 201.352 455.483 200.517C454.996 198.91 454.177 197.423 453.079 196.152C451.981 194.882 450.628 193.856 449.109 193.141C447.589 192.426 445.937 192.038 444.258 192.002C442.579 191.965 440.911 192.282 439.362 192.931C440.042 190.307 440.18 187.572 439.766 184.893C439.353 182.214 438.397 179.648 436.957 177.351C435.517 175.055 433.623 173.076 431.392 171.537C429.16 169.998 426.638 168.93 423.98 168.4C423.98 168.267 424 168.137 424 168C424.002 164.222 422.666 160.566 420.229 157.679C417.793 154.793 414.413 152.861 410.689 152.228C406.965 151.595 403.137 152.3 399.883 154.219C396.63 156.138 394.16 159.147 392.913 162.713C390.35 160.966 387.332 160.005 384.231 159.947C381.129 159.89 378.079 160.739 375.453 162.39C372.827 164.042 370.74 166.424 369.448 169.244C368.156 172.064 367.715 175.2 368.179 178.267C365.128 176.441 361.554 175.685 358.025 176.12C354.495 176.554 351.212 178.153 348.694 180.664C346.176 183.176 344.568 186.455 344.125 189.983C343.681 193.511 344.427 197.087 346.245 200.143C343.249 200.586 340.532 202.146 338.638 204.51C336.745 206.874 335.816 209.866 336.039 212.887C336.261 215.907 337.618 218.732 339.836 220.793C342.055 222.855 344.971 224 348 224H452Z" fill="#31B4F6"/>
<path d="M341.287 338.975C340.486 338.529 339.821 337.874 339.361 337.08C338.902 336.287 338.666 335.384 338.678 334.467V333.856C338.678 323.432 330.494 314.956 320.436 314.956C319.078 314.949 317.736 314.664 316.493 314.117C315.25 313.57 314.132 312.774 313.209 311.778C312.085 310.587 310.73 309.637 309.227 308.989C307.723 308.34 306.103 308.005 304.465 308.005C302.827 308.005 301.207 308.34 299.703 308.989C298.2 309.637 296.845 310.587 295.721 311.778C293.926 313.682 292.749 316.085 292.344 318.67C291.939 321.256 292.325 323.903 293.452 326.265L299.966 339.898C300.732 341.506 301.749 342.982 302.979 344.271C304.58 345.98 305.47 348.234 305.47 350.575C305.47 352.916 304.58 355.17 302.979 356.879C301.272 358.672 300.044 360.866 299.41 363.259C298.775 365.652 298.755 368.166 299.349 370.569C299.888 372.904 301.006 375.066 302.601 376.855C304.196 378.644 306.216 380.002 308.475 380.803C310.709 381.584 313.058 381.983 315.425 381.983C319.582 381.949 323.644 380.741 327.144 378.496C330.643 376.252 333.436 373.064 335.2 369.3L337.005 365.522C337.448 364.583 338.182 363.812 339.097 363.322L341.287 362.175C343.375 361.043 345.118 359.368 346.333 357.327C347.547 355.286 348.188 352.955 348.188 350.58C348.188 348.205 347.547 345.874 346.333 343.833C345.118 341.792 343.375 340.117 341.287 338.985V338.975ZM337.578 355.075L335.388 356.222C332.942 357.518 330.978 359.568 329.788 362.067L327.983 365.845C324.832 372.445 317.737 375.545 311.111 373.245C310.114 372.888 309.225 372.283 308.528 371.486C307.831 370.69 307.349 369.728 307.128 368.693C306.85 367.591 306.855 366.437 307.141 365.338C307.427 364.238 307.986 363.229 308.765 362.402C311.769 359.195 313.44 354.965 313.44 350.57C313.44 346.176 311.769 341.946 308.765 338.739C308.12 338.064 307.587 337.289 307.187 336.445L300.673 322.812C300.249 321.915 300.102 320.911 300.251 319.93C300.399 318.949 300.836 318.034 301.506 317.302C301.885 316.895 302.343 316.57 302.852 316.346C303.361 316.122 303.911 316.005 304.467 316.002C305.034 316.008 305.594 316.131 306.112 316.363C306.629 316.596 307.093 316.932 307.475 317.352C309.148 319.109 311.159 320.51 313.386 321.473C315.613 322.435 318.012 322.938 320.438 322.952C326.085 322.952 330.68 327.844 330.68 333.852V334.463C330.657 336.843 331.289 339.184 332.505 341.229C333.722 343.275 335.478 344.947 337.58 346.063C338.372 346.519 339.03 347.176 339.488 347.967C339.945 348.758 340.186 349.656 340.186 350.57C340.186 351.484 339.945 352.382 339.488 353.173C339.03 353.964 338.372 354.621 337.58 355.077L337.578 355.075Z" fill="#21409A"/>
<path d="M504.188 220H466.022C467.709 217.098 468.44 213.738 468.111 210.398C467.782 207.057 466.409 203.905 464.188 201.388V163.76C488.788 161.039 508.188 133.492 508.188 100C508.188 80.693 501.667 62.526 490.596 50.445C492.842 47.949 494.622 45.07 495.851 41.945L499.91 31.619C500.182 30.9277 500.256 30.1744 500.124 29.4434C499.991 28.7124 499.658 28.0327 499.161 27.4804C498.665 26.9281 498.024 26.5251 497.311 26.3164C496.598 26.1077 495.841 26.1017 495.125 26.299L484.425 29.247C479.221 30.6872 474.541 33.5908 470.939 37.613C467.455 36.5469 463.832 36.0033 460.188 36C433.72 36 412.188 64.71 412.188 100C412.188 133.492 431.588 161.039 456.188 163.76V193.4C454.689 191.696 452.842 190.333 450.772 189.401C448.703 188.47 446.458 187.992 444.188 188C444.177 183.007 442.613 178.14 439.714 174.075C436.815 170.009 432.724 166.945 428.007 165.307C427.456 161.243 425.668 157.448 422.886 154.435C420.105 151.421 416.463 149.337 412.457 148.463C408.45 147.59 404.272 147.97 400.488 149.552C396.705 151.134 393.499 153.841 391.307 157.307C388.151 156.105 384.741 155.725 381.397 156.202C378.054 156.678 374.886 157.996 372.191 160.031V102.061L386.23 108.667C387.19 109.119 388.29 109.17 389.288 108.811C390.286 108.452 391.1 107.711 391.552 106.751L400.067 88.651C400.519 87.6912 400.57 86.5913 400.211 85.5932C399.852 84.5952 399.111 83.7807 398.151 83.329L372.191 71.112V40C372.191 38.9391 371.77 37.9217 371.019 37.1716C370.269 36.4214 369.252 36 368.191 36H344.191C343.13 36 342.113 36.4214 341.363 37.1716C340.612 37.9217 340.191 38.9391 340.191 40V56.057L257.891 17.329C257.358 17.0782 256.776 16.9481 256.188 16.9481C255.599 16.9481 255.017 17.0782 254.484 17.329L114.227 83.329C113.267 83.7807 112.526 84.5952 112.167 85.5932C111.808 86.5913 111.859 87.6912 112.311 88.651L120.826 106.751C121.278 107.711 122.092 108.452 123.09 108.811C124.088 109.17 125.188 109.119 126.148 108.667L140.188 102.061V160.029C137.493 157.994 134.325 156.676 130.982 156.2C127.638 155.723 124.228 156.103 121.072 157.305C118.879 153.84 115.674 151.133 111.891 149.551C108.107 147.97 103.929 147.59 99.9227 148.463C95.9162 149.337 92.2752 151.421 89.4935 154.434C86.7117 157.446 84.9237 161.242 84.372 165.305C79.6543 166.943 75.5624 170.007 72.6629 174.073C69.7634 178.139 68.1996 183.006 68.188 188C65.381 187.995 62.622 188.729 60.188 190.127V163.767C75.442 162.057 89.258 150.667 97.188 133.351C103.126 138.857 110.92 141.923 119.017 141.938C119.721 141.938 120.428 141.915 121.137 141.868L125.237 141.594C125.836 141.554 126.417 141.38 126.94 141.084C127.462 140.789 127.911 140.38 128.253 139.887C128.596 139.395 128.824 138.832 128.919 138.24C129.014 137.647 128.976 137.041 128.805 136.466L127.638 132.528C125.988 127.002 122.884 122.021 118.65 118.106C114.416 114.191 109.208 111.486 103.57 110.273C103.981 106.864 104.188 103.434 104.19 100C104.19 64.71 82.657 36 56.19 36C29.723 36 8.19001 64.71 8.19001 100C8.19001 133.492 27.59 161.039 52.19 163.76V198.145C50.3678 199.193 48.7705 200.591 47.4901 202.258C46.2097 203.925 45.2713 205.828 44.7289 207.859C44.1865 209.89 44.0508 212.008 44.3295 214.092C44.6082 216.175 45.2959 218.183 46.353 220H8.18801C7.12714 220 6.10972 220.421 5.35958 221.172C4.60943 221.922 4.18801 222.939 4.18801 224V240C4.1561 280.913 13.7564 321.259 32.212 357.773C52.155 396.99 84.131 430.563 124.682 454.863C165.233 479.163 210.7 492 256.188 492C289.131 491.961 321.722 485.221 351.979 472.19C381.908 459.407 409.158 441.095 432.3 418.214C481.234 370.014 508.184 306.724 508.184 240V224C508.184 222.94 507.763 221.923 507.014 221.173C506.265 220.423 505.248 220.001 504.188 220ZM486.554 36.962L489.538 36.14L488.405 39.021C487.082 42.3674 484.892 45.3013 482.06 47.5215C479.228 49.7416 475.856 51.168 472.291 51.654C473.151 48.1599 474.926 44.9577 477.432 42.3758C479.939 39.7939 483.087 37.9254 486.554 36.962ZM420.188 100C420.188 69.121 438.132 44 460.188 44C462.248 44.0029 464.301 44.2268 466.313 44.668C465.253 46.9526 464.505 49.3697 464.091 51.854L463.515 55.354C463.421 55.9262 463.453 56.5119 463.608 57.0706C463.764 57.6292 464.038 58.1475 464.414 58.5894C464.789 59.0313 465.256 59.3864 465.782 59.63C466.308 59.8735 466.881 59.9998 467.461 60C467.538 60 467.615 60 467.692 59.993L471.229 59.788C475.924 59.5131 480.474 58.0664 484.466 55.58C494.356 66.185 500.188 82.512 500.188 100C500.188 128.989 484.372 152.9 464.188 155.719V101.355L482.388 89.855C482.84 89.5782 483.232 89.2143 483.542 88.7846C483.852 88.3548 484.074 87.8678 484.194 87.3518C484.314 86.8357 484.33 86.3009 484.242 85.7784C484.154 85.256 483.963 84.7562 483.68 84.3082C483.397 83.8603 483.028 83.473 482.594 83.1689C482.16 82.8647 481.67 82.6499 481.152 82.5367C480.635 82.4236 480.1 82.4144 479.578 82.5097C479.057 82.605 478.56 82.803 478.116 83.092L464.184 91.892V80C464.184 78.9391 463.763 77.9217 463.012 77.1716C462.262 76.4214 461.245 76 460.184 76C459.123 76 458.106 76.4214 457.356 77.1716C456.605 77.9217 456.184 78.9391 456.184 80V123.294L441.711 108.821C441.341 108.443 440.9 108.142 440.413 107.935C439.926 107.729 439.402 107.621 438.873 107.618C438.344 107.615 437.82 107.717 437.331 107.918C436.841 108.119 436.397 108.416 436.023 108.79C435.649 109.164 435.352 109.608 435.151 110.098C434.95 110.587 434.848 111.112 434.851 111.641C434.854 112.17 434.962 112.693 435.169 113.18C435.376 113.667 435.677 114.108 436.055 114.478L456.184 134.606V155.719C436 152.9 420.188 128.989 420.188 100ZM384.188 164C386.568 163.996 388.894 164.704 390.869 166.032C391.376 166.373 391.955 166.593 392.561 166.675C393.167 166.757 393.783 166.7 394.363 166.507C394.943 166.313 395.471 165.99 395.906 165.561C396.342 165.132 396.673 164.609 396.875 164.032C397.808 161.362 399.655 159.108 402.089 157.669C404.523 156.229 407.388 155.695 410.177 156.163C412.966 156.63 415.501 158.068 417.332 160.223C419.164 162.378 420.175 165.111 420.187 167.939C420.178 168.062 420.172 168.184 420.169 168.307C420.149 169.245 420.459 170.161 421.045 170.893C421.631 171.626 422.456 172.129 423.376 172.315C425.504 172.738 427.522 173.591 429.308 174.822C431.094 176.053 432.61 177.636 433.762 179.474C434.913 181.312 435.677 183.366 436.007 185.51C436.336 187.654 436.223 189.843 435.676 191.942C435.493 192.663 435.514 193.42 435.738 194.13C435.962 194.839 436.379 195.472 436.942 195.957C437.506 196.443 438.194 196.761 438.928 196.878C439.663 196.994 440.415 196.903 441.101 196.615C442.079 196.204 443.13 195.994 444.191 195.996C445.905 196.004 447.572 196.559 448.948 197.58C450.325 198.601 451.34 200.035 451.845 201.673C452.036 202.303 452.379 202.877 452.845 203.342C453.31 203.808 453.884 204.151 454.514 204.342C456.352 204.897 457.929 206.095 458.957 207.717C459.985 209.339 460.395 211.276 460.113 213.176C459.831 215.075 458.875 216.809 457.42 218.062C455.965 219.315 454.108 220.003 452.188 220H348.188C346.169 220.001 344.225 219.238 342.745 217.865C341.266 216.491 340.361 214.609 340.212 212.596C340.063 210.582 340.682 208.587 341.944 207.011C343.206 205.435 345.017 204.395 347.014 204.1C347.664 204.005 348.28 203.75 348.809 203.36C349.337 202.97 349.762 202.456 350.044 201.863C350.327 201.27 350.459 200.616 350.429 199.96C350.399 199.304 350.207 198.665 349.872 198.1C348.509 195.809 347.95 193.128 348.282 190.483C348.615 187.838 349.82 185.38 351.708 183.497C353.596 181.614 356.057 180.415 358.703 180.09C361.349 179.764 364.028 180.331 366.316 181.7C366.965 182.087 367.709 182.283 368.464 182.264C369.219 182.246 369.954 182.014 370.582 181.595C371.211 181.177 371.709 180.589 372.017 179.9C372.326 179.21 372.433 178.448 372.326 177.7C372.064 175.996 372.176 174.256 372.653 172.6C373.131 170.944 373.962 169.411 375.091 168.108C376.219 166.805 377.617 165.763 379.187 165.054C380.758 164.344 382.464 163.985 384.188 164ZM334.353 220H284.188V136C284.188 134.939 283.767 133.922 283.016 133.172C282.266 132.421 281.249 132 280.188 132H232.188C231.127 132 230.11 132.421 229.36 133.172C228.609 133.922 228.188 134.939 228.188 136V220H178.022C179.44 217.572 180.187 214.811 180.188 212C180.172 209.035 179.339 206.133 177.778 203.612C176.218 201.091 173.992 199.049 171.346 197.713C172.248 194.718 172.428 191.552 171.873 188.473C171.317 185.395 170.042 182.491 168.15 180H216.188C217.249 180 218.266 179.579 219.016 178.828C219.767 178.078 220.188 177.061 220.188 176V136C220.188 134.939 219.767 133.922 219.016 133.172C218.266 132.421 217.249 132 216.188 132H160.188C159.127 132 158.11 132.421 157.36 133.172C156.609 133.922 156.188 134.939 156.188 136V172.4C154.871 172.133 153.531 171.999 152.188 172C150.844 172.003 149.504 172.142 148.188 172.415V98.3L256.188 47.477L364.188 98.3V172.419C361.55 171.87 358.828 171.866 356.188 172.407V136C356.188 134.939 355.767 133.922 355.016 133.172C354.266 132.421 353.249 132 352.188 132H296.188C295.127 132 294.11 132.421 293.36 133.172C292.609 133.922 292.188 134.939 292.188 136V176C292.188 177.061 292.609 178.078 293.36 178.828C294.11 179.579 295.127 180 296.188 180H344.225C342.333 182.491 341.057 185.395 340.501 188.473C339.945 191.551 340.125 194.717 341.025 197.713C338.379 199.05 336.154 201.091 334.595 203.612C333.035 206.133 332.202 209.036 332.188 212C332.188 214.811 332.936 217.572 334.353 220ZM276.188 140V220H236.188V140H276.188ZM164.188 148V140H212.188V148H164.188ZM212.188 156V172H192.188V156H212.188ZM184.188 156V172H164.188V156H184.188ZM300.188 148V140H348.188V148H300.188ZM348.188 156V172H328.188V156H348.188ZM320.188 156V172H300.188V156H320.188ZM348.188 44H364.188V67.351L348.188 59.822V44ZM126.361 99.726L121.252 88.868L256.188 25.368L391.123 88.868L386.014 99.726L257.891 39.433C257.358 39.1822 256.776 39.0521 256.188 39.0521C255.599 39.0521 255.017 39.1822 254.484 39.433L126.361 99.726ZM119.689 133.926C115.248 134.048 110.859 132.942 107.007 130.728C103.155 128.515 99.9889 125.28 97.858 121.382L95.528 117.107L100.346 117.807C104.741 118.455 108.872 120.303 112.285 123.147C115.698 125.992 118.26 129.723 119.689 133.929V133.926ZM16.188 100C16.188 69.121 34.132 44 56.188 44C78.244 44 96.188 69.121 96.188 100C96.1849 103.022 96.0069 106.042 95.655 109.044L88.764 108.044C88.029 107.937 87.2787 108.037 86.5973 108.333C85.9159 108.628 85.3301 109.107 84.9058 109.717C84.4814 110.327 84.2351 111.042 84.1945 111.784C84.154 112.525 84.3207 113.264 84.676 113.916L90.834 125.216C91.034 125.587 91.26 125.942 91.476 126.303C85.183 142.752 73.304 153.82 60.188 155.711V101.355L78.388 89.855C78.8398 89.5782 79.2321 89.2143 79.5421 88.7846C79.852 88.3548 80.0736 87.8678 80.1938 87.3518C80.3139 86.8357 80.3304 86.3009 80.2422 85.7784C80.154 85.256 79.9628 84.7562 79.6798 84.3082C79.3969 83.8603 79.0277 83.473 78.5938 83.1689C78.1599 82.8647 77.6699 82.6499 77.1522 82.5367C76.6346 82.4236 76.0996 82.4144 75.5784 82.5097C75.0572 82.605 74.5601 82.803 74.116 83.092L60.184 91.892V80C60.184 78.9391 59.7626 77.9217 59.0124 77.1716C58.2623 76.4214 57.2449 76 56.184 76C55.1231 76 54.1057 76.4214 53.3556 77.1716C52.6054 77.9217 52.184 78.9391 52.184 80V123.294L37.715 108.821C37.3451 108.443 36.9038 108.142 36.4167 107.935C35.9296 107.729 35.4064 107.621 34.8774 107.618C34.3483 107.615 33.824 107.717 33.3346 107.918C32.8453 108.119 32.4007 108.416 32.0267 108.79C31.6526 109.164 31.3565 109.608 31.1554 110.098C30.9544 110.587 30.8524 111.112 30.8554 111.641C30.8584 112.17 30.9664 112.693 31.1729 113.18C31.3795 113.667 31.6807 114.108 32.059 114.478L52.188 134.606V155.719C32 152.9 16.188 128.989 16.188 100ZM57.864 204.346C58.4941 204.155 59.0673 203.812 59.5329 203.347C59.9985 202.881 60.342 202.308 60.533 201.678C60.8577 200.607 61.4036 199.616 62.1353 198.769C62.867 197.922 63.7683 197.238 64.7809 196.761C65.7935 196.284 66.8949 196.025 68.0139 196.001C69.1328 195.976 70.2445 196.187 71.277 196.619C71.9628 196.907 72.7152 196.998 73.4499 196.882C74.1845 196.765 74.8722 196.447 75.4357 195.961C75.9992 195.476 76.4162 194.843 76.6399 194.134C76.8636 193.424 76.8851 192.667 76.702 191.946C76.1553 189.847 76.0431 187.659 76.3725 185.515C76.7018 183.371 77.4658 181.318 78.6173 179.48C79.7689 177.642 81.2839 176.059 83.0693 174.827C84.8547 173.596 86.8729 172.742 89 172.319C89.9248 172.132 90.7538 171.624 91.3404 170.885C91.9271 170.147 92.2337 169.224 92.206 168.281C92.206 168.181 92.197 168.073 92.188 167.936C92.2016 165.109 93.2138 162.377 95.046 160.223C96.8782 158.069 99.4124 156.633 102.201 156.166C104.99 155.699 107.854 156.233 110.287 157.673C112.721 159.113 114.567 161.367 115.5 164.036C115.702 164.612 116.033 165.134 116.468 165.563C116.903 165.991 117.431 166.314 118.01 166.507C118.589 166.7 119.204 166.758 119.809 166.676C120.414 166.595 120.993 166.376 121.5 166.036C123.421 164.72 125.685 163.994 128.014 163.948C130.342 163.902 132.633 164.538 134.604 165.778C136.576 167.017 138.142 168.807 139.109 170.925C140.076 173.043 140.403 175.398 140.049 177.7C139.942 178.448 140.049 179.21 140.358 179.9C140.666 180.589 141.164 181.177 141.793 181.595C142.421 182.014 143.156 182.246 143.911 182.264C144.666 182.283 145.411 182.087 146.059 181.7C148.347 180.332 151.025 179.767 153.67 180.093C156.315 180.419 158.776 181.618 160.663 183.501C162.55 185.383 163.755 187.841 164.088 190.485C164.421 193.129 163.862 195.809 162.5 198.1C162.165 198.665 161.973 199.304 161.943 199.96C161.913 200.616 162.046 201.27 162.328 201.863C162.611 202.456 163.035 202.97 163.563 203.36C164.092 203.75 164.708 204.005 165.358 204.1C167.355 204.395 169.166 205.435 170.428 207.011C171.69 208.587 172.309 210.582 172.16 212.595C172.011 214.608 171.107 216.491 169.627 217.864C168.148 219.238 166.204 220.001 164.185 220H60.185C58.2674 219.999 56.4139 219.31 54.962 218.057C53.5102 216.804 52.5566 215.072 52.275 213.175C51.9934 211.278 52.4025 209.343 53.4278 207.723C54.4531 206.102 56.0263 204.904 57.861 204.346H57.864ZM34.689 344.423C20.4041 312.84 12.7561 278.66 12.219 244H253.443C254.522 248.499 256.72 252.653 259.832 256.077L261.643 258.047C263.948 260.56 265.961 263.326 267.643 266.292C269.338 269.301 270.693 272.489 271.684 275.798C272.24 277.661 272.525 279.595 272.528 281.54C272.603 285.531 271.411 289.444 269.123 292.715C266.836 295.987 263.57 298.449 259.795 299.748C245.83 304.315 236.806 318.625 238.339 333.771L240.918 359.378C241.287 363.049 242.524 366.58 244.528 369.678C246.513 372.758 249.231 375.297 252.439 377.068C255.625 378.814 258.502 381.074 260.953 383.756C267.011 390.391 270.348 399.065 270.3 408.05C270.299 409.937 270.154 411.821 269.867 413.686C269.428 416.603 267.877 419.237 265.54 421.037L254.054 429.7C252.983 430.526 251.669 430.975 250.317 430.98C248.879 430.955 247.488 430.463 246.354 429.577C245.22 428.692 244.405 427.461 244.032 426.072C242.914 422.328 243.26 418.299 245 414.8C245.898 413.009 246.366 411.033 246.367 409.03C246.385 406.762 245.793 404.532 244.651 402.572C243.51 400.612 241.862 398.997 239.88 397.894C234.23 394.765 229.487 390.226 226.111 384.72C222.648 379.074 220.648 372.653 220.292 366.039C220.13 363.023 219.571 360.042 218.628 357.173C216.853 351.542 213.571 346.504 209.138 342.604C204.706 338.704 199.29 336.09 193.479 335.047L183.092 333.278C182.592 333.192 182.101 333.119 181.698 333.078C176.257 332.411 170.737 333.187 165.691 335.328C160.646 337.47 156.253 340.901 152.953 345.278L141.908 359.562C140.952 360.801 139.818 361.892 138.544 362.801C137.294 363.695 135.916 364.393 134.456 364.871C132.218 365.607 129.837 365.796 127.511 365.422C125.185 365.048 122.983 364.123 121.088 362.723C118.968 361.151 117.25 359.101 116.072 356.74C114.894 354.379 114.289 351.773 114.308 349.134V348.254C114.329 342.396 112.562 336.672 109.242 331.846C98.58 316.321 84.4483 303.494 67.967 294.38C66.1593 293.408 64.1431 292.887 62.0906 292.863C60.038 292.839 58.0101 293.311 56.18 294.241C51.2919 296.791 47.073 300.457 43.865 304.941C39.5065 311.032 37.1142 318.311 37.009 325.8C36.7796 332.063 36.0033 338.295 34.689 344.423ZM385.031 427.088C384.735 429.353 384.587 431.635 384.588 433.92C384.588 435.605 384.703 441.856 385.008 445.958C347.351 469.963 303.06 484 256.188 484C166.549 484 79.941 432.464 40.1 355.6C42.9768 345.96 44.6262 335.995 45.009 325.942C45.0904 320.08 46.9609 314.383 50.37 309.614C52.8418 306.152 56.0947 303.322 59.865 301.352C60.5246 301.016 61.2559 300.844 61.9963 300.852C62.7367 300.861 63.464 301.048 64.116 301.399C79.5068 309.913 92.702 321.897 102.655 336.399C105.054 339.891 106.329 344.032 106.31 348.268V349.148C106.294 353.048 107.199 356.896 108.951 360.38C110.703 363.865 113.252 366.886 116.391 369.2C119.304 371.347 122.689 372.766 126.262 373.336C129.836 373.907 133.494 373.614 136.931 372.481C139.164 371.751 141.273 370.685 143.185 369.32C145.1 367.954 146.803 366.314 148.241 364.452L159.283 350.172C161.751 346.891 165.04 344.318 168.819 342.712C172.598 341.106 176.734 340.525 180.809 341.026C181.114 341.057 181.419 341.104 181.736 341.159L192.136 342.93C196.513 343.732 200.587 345.716 203.917 348.667C207.247 351.618 209.706 355.424 211.029 359.672C211.752 361.873 212.18 364.159 212.304 366.472C212.735 374.418 215.141 382.132 219.304 388.914C223.408 395.6 229.175 401.109 236.041 404.904C236.763 405.319 237.36 405.92 237.769 406.644C238.179 407.369 238.386 408.191 238.368 409.023C238.371 409.781 238.194 410.528 237.852 411.204C235.199 416.522 234.667 422.65 236.364 428.345C237.222 431.391 239.047 434.075 241.564 435.992C244.081 437.909 247.154 438.955 250.318 438.973C253.412 438.973 256.421 437.953 258.878 436.073L270.352 427.418C274.35 424.36 277.009 419.873 277.772 414.898C278.121 412.629 278.297 410.336 278.299 408.04C278.348 397.053 274.26 386.45 266.847 378.34C263.805 375.014 260.236 372.213 256.283 370.048C254.238 368.915 252.507 367.292 251.243 365.325C249.93 363.294 249.119 360.98 248.878 358.573L246.298 332.962C245.142 321.526 251.863 310.753 262.278 307.347C267.659 305.527 272.324 302.048 275.603 297.41C278.882 292.772 280.606 287.214 280.528 281.534C280.525 278.817 280.129 276.115 279.352 273.511C278.189 269.626 276.597 265.882 274.606 262.348C272.624 258.851 270.251 255.59 267.534 252.627L265.725 250.658C263.966 248.73 262.616 246.465 261.758 244H329.339C329.28 244.585 329.25 245.172 329.247 245.76C329.222 250.386 330.989 254.842 334.177 258.194C338.405 262.71 343.998 265.714 350.098 266.743C356.198 267.773 362.467 266.772 367.943 263.894C368.874 263.425 369.932 263.27 370.959 263.45C371.985 263.63 372.927 264.136 373.643 264.894C374.837 266.161 376.277 267.171 377.875 267.861C379.474 268.551 381.196 268.907 382.938 268.907C384.679 268.907 386.401 268.551 388 267.861C389.598 267.171 391.038 266.161 392.232 264.894C394.146 262.867 395.402 260.307 395.834 257.553C396.266 254.798 395.854 251.977 394.653 249.461L392.041 244H428.726L433.093 253.943C433.758 255.441 433.887 257.122 433.457 258.703C433.026 260.284 432.064 261.669 430.732 262.623C426.568 265.47 423.169 269.298 420.833 273.769C418.498 278.24 417.297 283.216 417.338 288.26C417.339 289.366 417.396 290.472 417.509 291.572C417.774 294.164 418.533 296.682 419.745 298.988C420.942 301.283 422.576 303.321 424.555 304.988C425.918 306.147 427.011 307.591 427.756 309.219C428.501 310.846 428.88 312.616 428.867 314.406C428.916 316.687 428.315 318.935 427.133 320.887C425.952 322.839 424.24 324.415 422.197 325.43C417.12 327.851 411.381 328.507 405.889 327.295L390.754 323.876C387.241 323.109 383.582 323.362 380.209 324.607C376.836 325.852 373.889 328.036 371.717 330.901C369.032 334.445 367.579 338.77 367.577 343.216C367.578 343.929 367.615 344.642 367.689 345.352L370.108 368.491C370.5 372.538 372.46 376.271 375.569 378.891C376.426 379.622 377.112 380.532 377.579 381.558C378.046 382.583 378.281 383.699 378.269 384.825C378.27 386.547 377.708 388.223 376.669 389.596C375.049 391.706 373.102 393.544 370.902 395.039L364.114 399.617C362.44 400.777 361.055 402.306 360.064 404.085C359.074 405.865 358.506 407.848 358.403 409.882C358.3 411.916 358.665 413.946 359.471 415.817C360.276 417.688 361.501 419.348 363.049 420.671C365.283 422.554 368.107 423.592 371.028 423.605C371.505 423.606 371.981 423.577 372.454 423.518L381.038 422.529C381.564 422.471 382.096 422.536 382.593 422.718C383.09 422.901 383.538 423.196 383.901 423.581C384.345 424.04 384.678 424.595 384.874 425.203C385.07 425.811 385.124 426.456 385.031 427.088ZM337.247 245.76C337.251 245.17 337.306 244.581 337.41 244H383.127C383.338 244.392 383.549 244.785 383.739 245.187L387.439 252.911C387.936 253.962 388.108 255.138 387.933 256.287C387.759 257.436 387.246 258.508 386.459 259.364C386.012 259.851 385.469 260.24 384.864 260.506C384.259 260.772 383.606 260.909 382.945 260.909C382.284 260.909 381.631 260.772 381.026 260.506C380.421 260.24 379.878 259.851 379.431 259.364C377.521 257.339 375.001 255.994 372.255 255.534C369.51 255.073 366.689 255.523 364.223 256.815C361.335 258.343 358.117 259.14 354.85 259.138C352.058 259.131 349.298 258.553 346.737 257.44C344.177 256.326 341.871 254.702 339.962 252.665C338.199 250.8 337.226 248.326 337.247 245.76ZM392.747 440.806C392.647 438.206 392.587 435.5 392.587 433.92C392.586 431.985 392.711 430.052 392.962 428.134C393.216 426.298 393.046 424.428 392.464 422.668C391.883 420.909 390.906 419.305 389.608 417.982C388.394 416.728 386.909 415.769 385.266 415.179C383.623 414.59 381.866 414.385 380.132 414.582L371.498 415.582C370.906 415.645 370.306 415.586 369.738 415.409C369.169 415.232 368.643 414.94 368.191 414.551C367.576 414.025 367.093 413.362 366.78 412.615C366.468 411.868 366.334 411.059 366.391 410.251C366.418 409.46 366.63 408.685 367.01 407.991C367.391 407.296 367.929 406.7 368.581 406.251L375.381 401.666C378.294 399.69 380.872 397.259 383.015 394.466C385.123 391.694 386.265 388.308 386.268 384.825C386.282 382.531 385.792 380.262 384.832 378.178C383.872 376.094 382.466 374.247 380.714 372.766C379.208 371.47 378.259 369.644 378.066 367.666L375.646 344.517C375.601 344.085 375.578 343.651 375.577 343.217C375.577 340.526 376.454 337.908 378.077 335.761C379.306 334.098 380.992 332.827 382.929 332.103C384.866 331.378 386.972 331.231 388.991 331.679L404.122 335.097C411.377 336.701 418.959 335.837 425.667 332.642C429.073 330.98 431.936 328.382 433.92 325.153C435.904 321.924 436.928 318.197 436.872 314.407C436.887 311.45 436.253 308.526 435.016 305.841C433.778 303.156 431.967 300.775 429.709 298.866C428.524 297.866 427.548 296.642 426.834 295.266C426.096 293.86 425.634 292.326 425.472 290.746C425.386 289.918 425.343 289.087 425.343 288.255C425.304 284.521 426.183 280.834 427.904 277.519C429.626 274.205 432.136 271.365 435.213 269.249C438.11 267.258 440.218 264.315 441.17 260.93C442.123 257.546 441.859 253.936 440.425 250.726L437.463 244H500.153C498.784 324.545 456.042 397.069 392.747 440.806ZM500.188 236H12.188V228H500.188V236Z" fill="#21409A"/>
<path d="M256.188 68C250.65 68 245.237 69.6422 240.632 72.7189C236.027 75.7955 232.439 80.1685 230.319 85.2849C228.2 90.4012 227.646 96.0311 228.726 101.463C229.806 106.894 232.473 111.883 236.389 115.799C240.305 119.715 245.294 122.382 250.725 123.462C256.157 124.542 261.787 123.988 266.903 121.869C272.019 119.749 276.392 116.161 279.469 111.556C282.546 106.951 284.188 101.538 284.188 96C284.18 88.5765 281.227 81.4593 275.978 76.2101C270.729 70.9608 263.612 68.0082 256.188 68ZM252.188 115.6C248.348 114.809 244.823 112.91 242.051 110.137C239.278 107.365 237.379 103.84 236.588 100H252.188V115.6ZM252.188 92H236.588C237.379 88.1596 239.278 84.6353 242.051 81.8627C244.823 79.0902 248.348 77.191 252.188 76.4V92ZM260.188 115.6V100H275.788C274.997 103.84 273.098 107.365 270.325 110.137C267.553 112.91 264.028 114.809 260.188 115.6ZM260.188 92V76.4C264.028 77.191 267.553 79.0902 270.325 81.8627C273.098 84.6353 274.997 88.1596 275.788 92H260.188Z" fill="#21409A"/>
<path d="M248.188 184C250.397 184 252.188 182.209 252.188 180C252.188 177.791 250.397 176 248.188 176C245.979 176 244.188 177.791 244.188 180C244.188 182.209 245.979 184 248.188 184Z" fill="#21409A"/>
<path d="M385.715 59.713L389.794 60.189C391.022 60.3329 392.258 60.405 393.494 60.405C398.99 60.3992 404.392 58.9864 409.187 56.3012C413.982 53.6159 418.01 49.7477 420.886 45.065L427.6 34.087C427.988 33.4533 428.191 32.7242 428.187 31.9814C428.184 31.2386 427.974 30.5115 427.58 29.8814C427.187 29.2514 426.626 28.7433 425.96 28.4142C425.294 28.0851 424.549 27.9479 423.81 28.018L411 29.233C404.903 29.8238 399.102 32.1425 394.278 35.9167C389.454 39.6909 385.807 44.7638 383.767 50.539L382.4 54.415C382.201 54.9812 382.132 55.585 382.198 56.1815C382.264 56.7781 382.463 57.3521 382.781 57.8611C383.099 58.3702 383.528 58.8011 384.035 59.122C384.542 59.4429 385.115 59.6456 385.711 59.715L385.715 59.713ZM411.755 37.2L416.602 36.74L414.062 40.894C411.736 44.6777 408.412 47.7473 404.455 49.7656C400.499 51.7839 396.063 52.6729 391.634 52.335C393.272 48.2058 396.016 44.6083 399.566 41.938C403.116 39.2678 407.334 37.6284 411.755 37.2ZM100.188 54C100.471 54.0003 100.753 53.9701 101.029 53.91L104.492 53.165C109.756 52.0215 114.584 49.3991 118.408 45.606C122.233 41.813 124.895 37.007 126.082 31.753L128.507 20.926C128.67 20.2011 128.627 19.4452 128.384 18.7431C128.141 18.041 127.707 17.4204 127.132 16.951C126.556 16.4815 125.861 16.1816 125.124 16.085C124.387 15.9884 123.638 16.0989 122.961 16.404L112.845 20.961C107.938 23.182 103.767 26.7577 100.822 31.2678C97.8769 35.7779 96.2808 41.0349 96.221 46.421L96.188 49.963C96.1831 50.4914 96.283 51.0155 96.4818 51.5051C96.6806 51.9947 96.9745 52.44 97.3464 52.8154C97.7183 53.1907 98.1609 53.4887 98.6487 53.692C99.1364 53.8953 99.6596 54 100.188 54ZM116.13 28.256L118.952 26.984L118.275 30.005C117.481 33.5149 115.768 36.7505 113.311 39.3795C110.854 42.0085 107.741 43.9363 104.293 44.965C104.606 41.3801 105.867 37.943 107.947 35.0065C110.028 32.0701 112.852 29.7402 116.13 28.256Z" fill="#21409A"/>
</svg>
