<svg width="512" height="512" viewBox="0 0 512 512" fill="none" xmlns="http://www.w3.org/2000/svg">
<path d="M91.4 221.1V465.1H420.6V221.1L256 109.3L91.4 221.1Z" fill="white"/>
<path d="M119.6 436.9V236.1L256 143.4L392.4 236.1V436.9H119.6Z" fill="#A4D4FF"/>
<path d="M335.9 295.9C335.9 275.5 319.3 258.8 298.8 258.8C286.3 258.8 274.7 265.1 267.8 275.6C261.8 284.4 249.1 283.8 244.2 275.6C237.3 265.1 225.7 258.8 213.2 258.8C192.8 258.8 176.1 275.4 176.1 295.9C176.1 321.6 221.8 370.5 255.9 400.4C290.1 370 335.9 320.9 335.9 295.9Z" fill="#FFC10D"/>
<path d="M298.8 230.6C282.8 230.6 267.7 236.4 256 246.6C244.3 236.4 229.2 230.6 213.2 230.6C177.2 230.6 147.9 259.9 147.9 295.9C147.9 346.4 236.8 421.5 247 429.9C252.3 434.2 259.6 434.1 265.1 429.8C281.6 415.9 364.1 344.1 364.1 295.9C364.1 259.9 334.8 230.6 298.8 230.6ZM176.1 295.9C176.1 275.5 192.7 258.8 213.2 258.8C225.7 258.8 237.3 265.1 244.2 275.6C249.1 283.8 261.8 284.4 267.8 275.6C274.7 265.1 286.3 258.8 298.8 258.8C319.2 258.8 335.9 275.4 335.9 295.9C335.9 320.9 290.1 370.1 256 400.4C221.9 370.5 176.1 321.6 176.1 295.9Z" fill="#21409A"/>
<path d="M442.6 202L263.9 80.6C259.1 77.3 252.8 77.3 248 80.6L69.4 202C65.5 204.6 63.2 209 63.2 213.7V479.2C63.2 487 69.5 493.3 77.3 493.3H434.7C442.5 493.3 448.8 487 448.8 479.2V213.7C448.8 209 446.5 204.6 442.6 202ZM420.6 465.1H91.4V221.1L256 109.3L420.6 221.1V465.1Z" fill="#21409A"/>
<path d="M503.8 184.1L263.9 21.1C259.1 17.8 252.8 17.8 248 21.1L139.5 94.9V45.5C139.5 37.7 133.2 31.4 125.4 31.4H63.6C55.8 31.4 49.5 37.7 49.5 45.5V156L8.19999 184C1.79998 188.4 0.0999851 197.2 4.49999 203.6C8.89999 210 17.6 211.7 24.1 207.3L256 49.9L488 207.5C494.4 212.1 503.1 209.9 507.6 203.8C511.9 197.2 510.3 188.5 503.8 184.1ZM111.2 114.1L77.7 136.9V59.6H111.2V114.1Z" fill="#21409A"/>
<path d="M111.2 114.1V59.6H77.7V136.9L111.2 114.1Z" fill="#FFC10D"/>
</svg>
