<svg width="512" height="512" viewBox="0 0 512 512" fill="none" xmlns="http://www.w3.org/2000/svg">
<path d="M48.9173 164.416C44.9179 160.415 42.6712 154.99 42.6712 149.333C42.6712 143.676 44.9179 138.251 48.9173 134.251L134.251 48.9173C138.274 45.0313 143.663 42.881 149.257 42.9296C154.85 42.9782 160.201 45.2218 164.156 49.1772C168.111 53.1326 170.355 58.4832 170.404 64.0768C170.452 69.6703 168.302 75.0591 164.416 79.0827L79.0827 164.416C75.0821 168.415 69.6568 170.662 64 170.662C58.3432 170.662 52.9179 168.415 48.9173 164.416ZM422.251 336.917L336.917 422.251C334.88 424.219 333.255 426.573 332.137 429.175C331.018 431.778 330.43 434.578 330.405 437.41C330.381 440.243 330.92 443.052 331.993 445.674C333.066 448.295 334.65 450.677 336.653 452.68C338.656 454.683 341.038 456.268 343.66 457.34C346.281 458.413 349.091 458.953 351.923 458.928C354.756 458.903 357.555 458.315 360.158 457.197C362.761 456.079 365.115 454.454 367.083 452.416L452.416 367.083C456.302 363.059 458.452 357.67 458.404 352.077C458.355 346.483 456.111 341.133 452.156 337.177C448.201 333.222 442.85 330.978 437.257 330.93C431.663 330.881 426.274 333.031 422.251 336.917ZM463.083 198.251C459.082 194.251 453.657 192.005 448 192.005C442.343 192.005 436.918 194.251 432.917 198.251L198.251 432.917C196.213 434.885 194.588 437.239 193.47 439.842C192.352 442.445 191.763 445.244 191.739 448.077C191.714 450.909 192.254 453.719 193.326 456.34C194.399 458.962 195.983 461.344 197.986 463.347C199.989 465.35 202.371 466.934 204.993 468.007C207.615 469.08 210.424 469.619 213.257 469.595C216.089 469.57 218.889 468.982 221.491 467.864C224.094 466.745 226.448 465.12 228.416 463.083L463.083 228.416C467.082 224.415 469.329 218.99 469.329 213.333C469.329 207.676 467.082 202.251 463.083 198.251ZM64 320C69.6575 319.999 75.0828 317.75 79.0827 313.749L313.749 79.0827C315.787 77.1147 317.412 74.7607 318.53 72.158C319.648 69.5552 320.237 66.7558 320.261 63.9232C320.286 61.0906 319.746 58.2814 318.674 55.6596C317.601 53.0379 316.017 50.6559 314.014 48.6529C312.011 46.6499 309.629 45.0658 307.007 43.9931C304.385 42.9205 301.576 42.3807 298.743 42.4053C295.911 42.4299 293.111 43.0184 290.509 44.1365C287.906 45.2546 285.552 46.8798 283.584 48.9173L48.9173 283.584C45.9347 286.568 43.9037 290.368 43.0809 294.506C42.2581 298.644 42.6806 302.932 44.2949 306.83C45.9092 310.728 48.6428 314.059 52.1502 316.403C55.6576 318.747 59.7813 319.999 64 320ZM64 469.333C69.6575 469.332 75.0828 467.084 79.0827 463.083L463.083 79.0827C465.12 77.1147 466.745 74.7607 467.863 72.158C468.982 69.5552 469.57 66.7558 469.595 63.9232C469.619 61.0906 469.08 58.2814 468.007 55.6596C466.934 53.0379 465.35 50.6559 463.347 48.6529C461.344 46.6499 458.962 45.0658 456.34 43.9931C453.719 42.9205 450.909 42.3807 448.077 42.4053C445.244 42.4299 442.445 43.0184 439.842 44.1365C437.239 45.2546 434.885 46.8798 432.917 48.9173L48.9173 432.917C45.9347 435.901 43.9037 439.702 43.0809 443.839C42.2581 447.977 42.6806 452.266 44.2949 456.163C45.9092 460.061 48.6428 463.392 52.1502 465.737C55.6576 468.081 59.7813 469.332 64 469.333Z" fill="black"/>
</svg>
