<svg width="512" height="512" viewBox="0 0 512 512" fill="none" xmlns="http://www.w3.org/2000/svg">
<path d="M398.5 281H100.5C86.69 281 75.5 269.81 75.5 256C75.5 242.19 86.69 231 100.5 231H398.5C412.31 231 423.5 242.19 423.5 256C423.5 269.81 412.31 281 398.5 281Z" fill="currentColor"/>
<path d="M284.01 399.25C280.567 399.254 277.16 398.545 274.003 397.168C270.847 395.791 268.01 393.776 265.67 391.25C256.28 381.13 256.88 365.31 267 355.92L374.47 256.25L263.75 156.31C253.5 147.06 252.69 131.25 261.94 121C271.19 110.75 287 109.94 297.25 119.19L428.25 237.44C433.46 242.14 436.45 248.81 436.5 255.83C436.55 262.85 433.65 269.56 428.5 274.33L301 392.58C296.384 396.872 290.313 399.256 284.01 399.25Z" fill="currentColor"/>
</svg>
