<svg width="512" height="512" viewBox="0 0 512 512" fill="none" xmlns="http://www.w3.org/2000/svg">
<path d="M499.875 437.922L382.163 320.201C402.862 287.299 413.82 249.209 413.771 210.338C413.771 96.0741 321.141 3.45694 206.881 3.45694C92.6215 3.45694 0 96.0741 0 210.338C0 324.606 92.6171 417.215 206.881 417.215C249.142 417.269 290.397 404.319 325.046 380.124L441.357 496.444C445.198 500.287 449.76 503.333 454.781 505.409C459.802 507.484 465.183 508.548 470.616 508.539C476.051 508.548 481.434 507.485 486.458 505.409C491.481 503.334 496.045 500.287 499.888 496.444C507.645 488.681 512.001 478.155 511.999 467.18C511.996 456.206 507.635 445.681 499.875 437.922ZM206.881 350.188C129.652 350.188 67.0394 287.58 67.0394 210.347C67.0394 133.113 129.652 70.5006 206.881 70.5006C284.114 70.5006 346.723 133.113 346.723 210.347C346.723 287.58 284.114 350.188 206.881 350.188Z" fill="currentColor"/>
</svg>
