<svg width="512" height="512" viewBox="0 0 512 512" fill="none" xmlns="http://www.w3.org/2000/svg">
<g clip-path="url(#clip0_363_34)">
<path d="M477.867 0H34.1333C25.0806 0 16.3987 3.59618 9.99742 9.99742C3.59618 16.3987 0 25.0806 0 34.1333L0 358.4C0 367.453 3.59618 376.135 9.99742 382.536C16.3987 388.937 25.0806 392.533 34.1333 392.533H170.667V452.267H123.733C115.812 452.267 108.216 455.413 102.614 461.014C97.0133 466.616 93.8667 474.212 93.8667 482.133C93.8667 490.054 97.0133 497.651 102.614 503.252C108.216 508.853 115.812 512 123.733 512H388.267C396.188 512 403.785 508.853 409.386 503.252C414.987 497.651 418.133 490.054 418.133 482.133C418.133 474.212 414.987 466.616 409.386 461.014C403.785 455.413 396.188 452.267 388.267 452.267H341.333V392.533H477.867C486.919 392.533 495.601 388.937 502.003 382.536C508.404 376.135 512 367.453 512 358.4V34.1333C512 25.0806 508.404 16.3987 502.003 9.99742C495.601 3.59618 486.919 0 477.867 0ZM401.067 482.133C401.067 485.528 399.718 488.784 397.318 491.184C394.917 493.585 391.661 494.933 388.267 494.933H123.733C120.339 494.933 117.083 493.585 114.682 491.184C112.282 488.784 110.933 485.528 110.933 482.133C110.933 478.739 112.282 475.483 114.682 473.082C117.083 470.682 120.339 469.333 123.733 469.333H388.267C391.661 469.333 394.917 470.682 397.318 473.082C399.718 475.483 401.067 478.739 401.067 482.133ZM324.267 452.267H187.733V392.533H205.568C207.574 404.459 213.74 415.287 222.973 423.097C232.206 430.907 243.907 435.192 256 435.192C268.093 435.192 279.794 430.907 289.027 423.097C298.26 415.287 304.426 404.459 306.432 392.533H324.267V452.267ZM223.078 392.533H288.922C287.059 399.851 282.811 406.34 276.849 410.975C270.887 415.609 263.551 418.125 256 418.125C248.449 418.125 241.113 415.609 235.151 410.975C229.189 406.34 224.941 399.851 223.078 392.533ZM435.2 358.4V375.467H418.133V358.4H435.2ZM443.733 341.333H51.2V51.2H460.8V341.333H443.733ZM401.067 358.4V375.467H384V358.4H401.067ZM494.933 358.4C494.933 362.926 493.135 367.267 489.935 370.468C486.734 373.669 482.393 375.467 477.867 375.467H452.267V358.4H460.8C465.326 358.4 469.667 356.602 472.868 353.401C476.069 350.201 477.867 345.86 477.867 341.333V51.2C477.867 46.6736 476.069 42.3327 472.868 39.132C469.667 35.9314 465.326 34.1333 460.8 34.1333H51.2C46.6736 34.1333 42.3327 35.9314 39.132 39.132C35.9314 42.3327 34.1333 46.6736 34.1333 51.2V341.333C34.1333 345.86 35.9314 350.201 39.132 353.401C42.3327 356.602 46.6736 358.4 51.2 358.4H366.933V375.467H34.1333C29.607 375.467 25.266 373.669 22.0654 370.468C18.8648 367.267 17.0667 362.926 17.0667 358.4V34.1333C17.0667 29.607 18.8648 25.266 22.0654 22.0654C25.266 18.8648 29.607 17.0667 34.1333 17.0667H477.867C482.393 17.0667 486.734 18.8648 489.935 22.0654C493.135 25.266 494.933 29.607 494.933 34.1333V358.4Z" fill="currentColor"/>
<path d="M187.733 128C174.231 128 161.033 132.004 149.806 139.505C138.58 147.006 129.83 157.668 124.663 170.142C119.496 182.616 118.144 196.342 120.778 209.585C123.412 222.827 129.914 234.991 139.461 244.538C149.009 254.086 161.173 260.588 174.415 263.222C187.658 265.856 201.384 264.504 213.858 259.337C226.332 254.17 236.994 245.42 244.495 234.194C251.996 222.967 256 209.769 256 196.267C255.98 178.167 248.781 160.815 235.983 148.017C223.185 135.219 205.833 128.02 187.733 128ZM187.733 247.467C177.607 247.467 167.708 244.464 159.288 238.838C150.868 233.212 144.306 225.216 140.431 215.86C136.555 206.504 135.542 196.21 137.517 186.278C139.493 176.346 144.369 167.223 151.529 160.063C158.69 152.902 167.813 148.026 177.745 146.05C187.677 144.075 197.971 145.089 207.327 148.964C216.682 152.839 224.679 159.402 230.305 167.821C235.93 176.241 238.933 186.14 238.933 196.267C238.92 209.842 233.521 222.857 223.922 232.456C214.323 242.054 201.308 247.453 187.733 247.467Z" fill="currentColor"/>
<path d="M434.176 174.601L421.658 169.609C419.866 163.599 417.464 157.789 414.49 152.269L419.661 140.006C420.8 137.54 421.215 134.8 420.858 132.107C420.502 129.414 419.388 126.877 417.647 124.791C415.569 122.344 413.409 119.967 411.17 117.666C408.9 115.482 406.63 113.399 404.292 111.428C402.242 109.708 399.75 108.597 397.1 108.222C394.449 107.846 391.747 108.221 389.299 109.303L376.798 114.577C371.277 111.604 365.467 109.203 359.458 107.409L354.415 94.72C353.445 92.294 351.831 90.1792 349.746 88.6045C347.662 87.0297 345.186 86.055 342.588 85.7856C339.337 85.4469 336.069 85.2959 332.8 85.3333C329.64 85.3047 326.48 85.4557 323.337 85.7856C320.659 86.0235 318.099 87.0008 315.945 88.6086C313.79 90.2164 312.124 92.3913 311.134 94.8907L306.142 107.409C300.133 109.201 294.323 111.603 288.802 114.577L276.54 109.406C274.008 108.269 271.196 107.907 268.459 108.365C267.204 107.221 265.967 105.993 264.713 104.951C262.596 103.145 260.012 101.973 257.258 101.569C254.505 101.166 251.693 101.549 249.148 102.673L235.358 108.561C229.221 105.219 222.748 102.533 216.047 100.548L210.492 86.6304C209.478 84.0837 207.786 81.863 205.601 80.2084C203.415 78.5539 200.819 77.5287 198.093 77.2437C191.24 76.5696 184.338 76.5696 177.485 77.2437C174.739 77.5134 172.12 78.5311 169.913 80.1862C167.705 81.8413 165.995 84.0703 164.966 86.6304L159.42 100.531C152.719 102.516 146.246 105.201 140.109 108.544L126.293 102.69C123.776 101.565 120.993 101.17 118.262 101.55C115.531 101.931 112.962 103.071 110.848 104.841C108.228 107.008 105.728 109.338 103.168 111.846C100.77 114.295 98.4405 116.804 96.3925 119.287C94.5859 121.404 93.4136 123.988 93.0106 126.742C92.6075 129.495 92.99 132.307 94.1141 134.852L100.002 148.642C96.6596 154.779 93.9738 161.252 91.9893 167.953L78.0715 173.508C75.5248 174.522 73.304 176.214 71.6495 178.399C69.995 180.585 68.9698 183.181 68.6848 185.907C68.3947 189.355 68.2667 192.853 68.2667 196.267C68.2667 199.68 68.3947 203.179 68.7275 206.507C68.9971 209.252 70.0149 211.871 71.67 214.079C73.3251 216.286 75.554 217.997 78.1141 219.025L92.0149 224.572C93.9994 231.273 96.6852 237.745 100.028 243.883L94.1568 257.707C93.0338 260.224 92.64 263.007 93.0202 265.737C93.4003 268.468 94.5392 271.037 96.3072 273.152C98.4747 275.772 100.804 278.272 103.313 280.832C105.762 283.23 108.262 285.559 110.754 287.607C112.87 289.416 115.454 290.589 118.208 290.992C120.962 291.396 123.774 291.012 126.319 289.886L140.109 283.998C146.246 287.34 152.719 290.026 159.42 292.011L164.975 305.929C165.989 308.475 167.68 310.696 169.866 312.35C172.051 314.005 174.648 315.03 177.374 315.315C180.787 315.657 184.286 315.785 187.733 315.785C191.181 315.785 194.645 315.657 197.973 315.324C200.719 315.054 203.338 314.036 205.545 312.381C207.753 310.726 209.464 308.497 210.492 305.937L216.038 292.036C222.739 290.052 229.212 287.366 235.349 284.023L249.131 289.903C251.648 291.026 254.431 291.42 257.161 291.04C259.892 290.659 262.461 289.521 264.576 287.753C265.856 286.694 267.085 285.466 268.339 284.339C271.034 284.779 273.799 284.42 276.292 283.307L288.794 278.033C294.315 281.006 300.125 283.408 306.133 285.201L311.177 297.856C312.146 300.282 313.76 302.397 315.845 303.972C317.93 305.546 320.405 306.521 323.004 306.79C326.259 307.115 329.529 307.252 332.8 307.2C335.961 307.229 339.12 307.078 342.263 306.748C344.941 306.51 347.501 305.533 349.655 303.925C351.81 302.317 353.476 300.142 354.466 297.643L359.458 285.124C365.467 283.332 371.277 280.93 376.798 277.956L389.06 283.127C391.528 284.262 394.266 284.675 396.959 284.319C399.651 283.962 402.188 282.851 404.275 281.114C406.63 279.125 408.9 277.052 411.401 274.637C413.585 272.367 415.667 270.097 417.638 267.759C419.365 265.712 420.48 263.219 420.856 260.568C421.231 257.916 420.853 255.212 419.763 252.766L414.49 240.265C417.462 234.743 419.864 228.933 421.658 222.925L434.313 217.882C436.739 216.912 438.853 215.298 440.428 213.213C442.003 211.129 442.978 208.653 443.247 206.054C443.597 202.804 443.759 199.536 443.733 196.267C443.762 193.106 443.611 189.947 443.281 186.803C443.043 184.125 442.066 181.566 440.458 179.411C438.85 177.257 436.675 175.591 434.176 174.601ZM254.737 273.673L238.148 266.598C236.905 266.068 235.553 265.842 234.204 265.937C232.855 266.032 231.549 266.446 230.391 267.145C223.33 271.411 215.667 274.59 207.659 276.574C206.342 276.899 205.122 277.533 204.1 278.423C203.078 279.314 202.282 280.435 201.779 281.694L195.106 298.402C190.199 298.803 185.268 298.803 180.361 298.402L173.687 281.694C173.185 280.435 172.389 279.314 171.367 278.423C170.344 277.533 169.124 276.899 167.808 276.574C159.797 274.591 152.13 271.412 145.067 267.145C143.909 266.446 142.603 266.032 141.254 265.937C139.905 265.842 138.554 266.068 137.31 266.598L120.721 273.673C118.852 272.068 117.052 270.379 115.371 268.732C113.69 267.085 111.957 265.19 110.319 263.27L117.393 246.682C117.923 245.44 118.15 244.09 118.057 242.743C117.963 241.396 117.552 240.09 116.855 238.933C112.589 231.872 109.41 224.209 107.426 216.201C107.101 214.884 106.467 213.664 105.577 212.642C104.686 211.619 103.565 210.824 102.306 210.321L85.5979 203.648C85.4016 201.182 85.3333 198.724 85.3333 196.267C85.3333 193.809 85.4016 191.394 85.5979 188.894L102.306 182.221C103.565 181.718 104.686 180.922 105.577 179.9C106.467 178.878 107.101 177.658 107.426 176.341C109.409 168.33 112.588 160.664 116.855 153.6C117.554 152.443 117.968 151.136 118.063 149.787C118.158 148.439 117.932 147.087 117.402 145.843L110.327 129.254C111.932 127.386 113.621 125.585 115.268 123.904C116.915 122.223 118.81 120.491 120.73 118.852L137.318 125.926C138.56 126.456 139.91 126.684 141.257 126.59C142.604 126.497 143.91 126.085 145.067 125.389C152.128 121.122 159.791 117.943 167.799 115.959C169.116 115.634 170.336 115.001 171.358 114.11C172.381 113.22 173.176 112.099 173.679 110.839L180.352 94.1312C185.259 93.7301 190.191 93.7301 195.098 94.1312L201.771 110.839C202.273 112.099 203.069 113.22 204.092 114.11C205.114 115.001 206.334 115.634 207.65 115.959C215.664 117.942 223.334 121.12 230.4 125.389C231.557 126.088 232.864 126.502 234.213 126.597C235.561 126.692 236.913 126.465 238.157 125.935L254.746 118.861C256.614 120.465 258.415 122.155 260.096 123.802C261.777 125.449 263.509 127.343 265.148 129.263L258.074 145.852C257.544 147.095 257.317 148.447 257.412 149.796C257.507 151.145 257.921 152.451 258.62 153.609C262.887 160.67 266.065 168.333 268.049 176.341C268.374 177.658 269.008 178.878 269.898 179.9C270.789 180.922 271.91 181.718 273.169 182.221L289.877 188.894C290.074 191.351 290.142 193.809 290.142 196.267C290.142 198.724 290.074 201.139 289.877 203.639L273.169 210.313C271.91 210.815 270.789 211.611 269.898 212.633C269.008 213.656 268.374 214.876 268.049 216.192C266.063 224.204 262.882 231.87 258.611 238.933C257.912 240.091 257.498 241.397 257.403 242.746C257.308 244.095 257.535 245.446 258.065 246.69L265.139 263.279C261.96 267.021 258.481 270.497 254.737 273.673ZM306.739 186.027C306.47 183.281 305.452 180.662 303.797 178.455C302.142 176.247 299.913 174.536 297.353 173.508L296.96 173.355C301.92 165.567 309.273 159.598 317.915 156.345C326.556 153.091 336.02 152.729 344.884 155.312C353.749 157.896 361.537 163.285 367.078 170.671C372.619 178.057 375.614 187.042 375.614 196.275C375.614 205.509 372.619 214.493 367.078 221.879C361.537 229.265 353.749 234.655 344.884 237.238C336.02 239.821 326.556 239.459 317.915 236.206C309.273 232.953 301.92 226.984 296.96 219.196L297.37 219.034C299.916 218.02 302.137 216.328 303.792 214.143C305.446 211.957 306.471 209.361 306.756 206.635C307.098 203.221 307.226 199.723 307.226 196.275C307.226 192.828 307.072 189.355 306.739 186.027ZM426.445 202.658L411.392 208.631C410.133 209.134 409.012 209.93 408.121 210.952C407.231 211.975 406.597 213.195 406.272 214.511C404.457 221.833 401.552 228.84 397.653 235.298C396.964 236.445 396.554 237.737 396.456 239.071C396.358 240.405 396.576 241.743 397.09 242.978L403.439 258.005C402.039 259.61 400.623 261.137 399.3 262.528C397.73 264.03 396.169 265.481 394.556 266.889L379.52 260.548C378.278 260.031 376.933 259.813 375.592 259.911C374.25 260.009 372.951 260.42 371.797 261.111C365.342 264.994 358.341 267.885 351.027 269.687C349.711 270.012 348.491 270.646 347.469 271.537C346.446 272.427 345.651 273.548 345.148 274.807L339.174 289.86C334.916 290.225 330.633 290.225 326.374 289.86L320.401 274.807C319.898 273.548 319.103 272.427 318.08 271.537C317.058 270.646 315.838 270.012 314.522 269.687C307.214 267.886 300.219 264.998 293.769 261.12C292.615 260.428 291.316 260.017 289.974 259.919C288.633 259.821 287.287 260.04 286.046 260.557L282.436 262.084C282.283 260.558 281.907 259.063 281.318 257.647L275.43 243.857C278.171 238.726 280.455 233.363 282.257 227.831C289.122 238.844 299.385 247.321 311.496 251.981C323.607 256.641 336.906 257.231 349.382 253.661C361.857 250.091 372.831 242.555 380.644 232.194C388.456 221.833 392.681 209.209 392.681 196.233C392.681 183.256 388.456 170.633 380.644 160.271C372.831 149.91 361.857 142.374 349.382 138.804C336.906 135.234 323.607 135.824 311.496 140.484C299.385 145.144 289.122 153.621 282.257 164.634C280.455 159.102 278.171 153.74 275.43 148.608L281.31 134.827C281.905 133.409 282.285 131.911 282.436 130.381L286.046 131.908C287.286 132.43 288.633 132.651 289.975 132.553C291.317 132.455 292.617 132.041 293.769 131.345C300.224 127.463 307.225 124.572 314.539 122.769C315.855 122.444 317.075 121.81 318.097 120.92C319.12 120.029 319.915 118.908 320.418 117.649L326.391 102.596C330.65 102.223 334.933 102.223 339.191 102.596L345.165 117.649C345.668 118.908 346.463 120.029 347.486 120.92C348.508 121.81 349.728 122.444 351.044 122.769C358.368 124.592 365.375 127.506 371.831 131.413C372.983 132.109 374.283 132.523 375.625 132.621C376.967 132.719 378.314 132.498 379.554 131.977L394.581 125.628C396.186 127.027 397.713 128.444 399.104 129.766C400.606 131.337 402.057 132.898 403.465 134.511L397.124 149.547C396.61 150.781 396.392 152.12 396.49 153.454C396.588 154.788 396.998 156.08 397.687 157.227C401.57 163.682 404.461 170.683 406.263 177.997C406.588 179.313 407.222 180.533 408.113 181.555C409.003 182.578 410.124 183.373 411.383 183.876L426.436 189.85C426.615 191.974 426.658 194.116 426.658 196.233C426.658 198.349 426.667 200.414 426.445 202.65V202.658Z" fill="currentColor"/>
</g>
<defs>
<clipPath id="clip0_363_34">
<rect width="512" height="512" fill="white"/>
</clipPath>
</defs>
</svg>
