<svg width="512" height="512" viewBox="0 0 512 512" fill="none" xmlns="http://www.w3.org/2000/svg">
<path d="M126.811 159.948H143.082V203.857C143.081 205.446 143.554 206.999 144.439 208.317C145.325 209.636 146.584 210.661 148.055 211.261C149.526 211.861 151.142 212.009 152.698 211.687C154.253 211.364 155.677 210.585 156.788 209.449L191.753 173.731V219.703C191.753 234.817 204.049 247.114 219.164 247.114H277.825L317.342 287.487C318.453 288.622 319.877 289.401 321.432 289.723C322.987 290.045 324.604 289.897 326.074 289.296C327.545 288.696 328.803 287.672 329.689 286.354C330.575 285.036 331.048 283.483 331.048 281.895V247.114H343.039C358.154 247.114 370.45 234.818 370.45 219.703V145.237C370.45 130.122 358.154 117.826 343.039 117.826H308.74V37.973C308.74 20.577 294.574 6.42401 277.162 6.42401H126.811C109.399 6.42401 95.233 20.577 95.233 37.973V128.37C95.233 145.782 109.399 159.948 126.811 159.948ZM354.461 145.236V219.702C354.461 226.001 349.336 231.125 343.037 231.125H323.053C320.933 231.125 318.9 231.967 317.4 233.466C315.901 234.966 315.059 236.999 315.059 239.119V262.299L286.898 233.528C286.154 232.767 285.265 232.163 284.284 231.751C283.303 231.338 282.249 231.126 281.185 231.126H219.163C212.864 231.126 207.74 226.001 207.74 219.703V145.237C207.74 138.938 212.865 133.813 219.163 133.813H343.037C349.336 133.813 354.461 138.938 354.461 145.237V145.236ZM111.22 37.973C111.22 29.392 118.214 22.411 126.811 22.411H277.161C285.758 22.411 292.751 29.392 292.751 37.973V117.825H219.164C204.05 117.825 191.753 130.121 191.753 145.236V150.875L159.069 184.263V151.954C159.069 149.834 158.227 147.801 156.728 146.301C155.228 144.802 153.195 143.96 151.075 143.96H126.81C118.213 143.96 111.219 136.966 111.219 128.369L111.22 37.973ZM141.891 64.761C141.891 62.6409 142.733 60.6076 144.232 59.1084C145.732 57.6092 147.765 56.767 149.885 56.767H254.087C256.207 56.767 258.24 57.6092 259.74 59.1084C261.239 60.6076 262.081 62.6409 262.081 64.761C262.081 66.8812 261.239 68.9145 259.74 70.4136C258.24 71.9128 256.207 72.755 254.087 72.755H149.885C147.765 72.755 145.732 71.9128 144.232 70.4136C142.733 68.9145 141.891 66.8812 141.891 64.761ZM141.891 101.583C141.891 99.4629 142.733 97.4296 144.232 95.9304C145.732 94.4312 147.765 93.589 149.885 93.589H254.087C256.207 93.589 258.24 94.4312 259.74 95.9304C261.239 97.4296 262.081 99.4629 262.081 101.583C262.081 103.703 261.239 105.736 259.74 107.236C258.24 108.735 256.207 109.577 254.087 109.577H149.885C147.765 109.577 145.732 108.735 144.232 107.236C142.733 105.736 141.891 103.703 141.891 101.583ZM332.011 197.649C332.011 199.769 331.169 201.802 329.67 203.302C328.17 204.801 326.137 205.643 324.017 205.643H238.184C236.064 205.643 234.031 204.801 232.531 203.302C231.032 201.802 230.19 199.769 230.19 197.649C230.19 195.529 231.032 193.496 232.531 191.996C234.031 190.497 236.064 189.655 238.184 189.655H324.017C326.137 189.655 328.17 190.497 329.67 191.996C331.169 193.496 332.011 195.529 332.011 197.649ZM238.184 159.325H324.017C326.137 159.325 328.17 160.167 329.67 161.666C331.169 163.166 332.011 165.199 332.011 167.319C332.011 169.439 331.169 171.472 329.67 172.972C328.17 174.471 326.137 175.313 324.017 175.313H238.184C236.064 175.313 234.031 174.471 232.531 172.972C231.032 171.472 230.19 169.439 230.19 167.319C230.19 165.199 231.032 163.166 232.531 161.666C234.031 160.167 236.064 159.325 238.184 159.325ZM458.351 220.27H425.101C402.531 220.27 384.169 236.75 384.169 257.006V279.372C384.169 291.126 393.744 300.688 405.514 300.688H477.939C489.709 300.688 499.284 291.126 499.284 279.372V257.006C499.284 236.75 480.921 220.27 458.351 220.27ZM483.296 279.372C483.296 282.31 480.893 284.7 477.939 284.7H405.514C402.56 284.7 400.157 282.31 400.157 279.372V257.006C400.157 245.565 411.347 236.257 425.102 236.257H458.352C472.106 236.257 483.297 245.565 483.297 257.006V279.372H483.296ZM441.74 215.932C462.325 215.932 479.072 199.185 479.072 178.6C479.072 158.015 462.325 141.239 441.74 141.239C421.155 141.239 404.379 157.999 404.379 178.6C404.379 199.201 421.139 215.932 441.74 215.932ZM441.74 157.227C453.51 157.227 463.085 166.815 463.085 178.601C463.085 190.387 453.51 199.946 441.74 199.946C429.97 199.946 420.366 190.371 420.366 178.601C420.366 166.831 429.954 157.227 441.74 157.227ZM388.453 395.419C398.398 385.856 404.606 372.433 404.606 357.579C404.606 328.616 381.043 305.053 352.08 305.053C323.117 305.053 299.554 328.616 299.554 357.579C299.554 372.433 305.762 385.856 315.707 395.419C291.326 400.504 273.107 420.034 273.107 443.299V475.303C273.107 490.245 285.264 502.403 300.206 502.403H403.954C418.896 502.403 431.053 490.246 431.053 475.303V443.299C431.053 420.034 412.834 400.504 388.453 395.419ZM352.08 321.041C372.227 321.041 388.619 337.432 388.619 357.579C388.619 377.726 372.228 394.117 352.08 394.117C331.932 394.117 315.541 377.726 315.541 357.579C315.541 337.432 331.932 321.041 352.08 321.041ZM415.066 475.303C415.066 481.43 410.081 486.414 403.954 486.414H300.206C294.079 486.414 289.094 481.43 289.094 475.303V443.299C289.094 424.996 306.668 410.106 328.269 410.106H375.891C397.492 410.106 415.066 424.997 415.066 443.299V475.303ZM177.754 395.419C187.699 385.856 193.907 372.433 193.907 357.579C193.907 328.616 170.344 305.053 141.381 305.053C112.418 305.053 88.855 328.616 88.855 357.579C88.855 372.433 95.063 385.856 105.008 395.419C80.627 400.504 62.408 420.034 62.408 443.299V475.303C62.408 490.245 74.565 502.403 89.507 502.403H193.255C208.197 502.403 220.354 490.246 220.354 475.303V443.299C220.354 420.034 202.135 400.504 177.754 395.419ZM141.381 321.041C161.528 321.041 177.92 337.432 177.92 357.579C177.92 377.726 161.529 394.117 141.381 394.117C121.233 394.117 104.842 377.726 104.842 357.579C104.842 337.432 121.233 321.041 141.381 321.041ZM204.367 475.303C204.367 481.43 199.382 486.414 193.255 486.414H89.507C83.38 486.414 78.395 481.43 78.395 475.303V443.299C78.395 424.996 95.969 410.106 117.57 410.106H165.192C186.793 410.106 204.367 424.997 204.367 443.299V475.303ZM118.392 279.372V257.006C118.392 236.75 100.03 220.27 77.46 220.27H44.21C21.64 220.27 3.27698 236.75 3.27698 257.006V279.372C3.27698 291.126 12.852 300.688 24.622 300.688H97.047C108.817 300.688 118.392 291.126 118.392 279.372ZM19.264 279.372V257.006C19.264 245.565 30.454 236.257 44.209 236.257H77.459C91.213 236.257 102.404 245.565 102.404 257.006V279.372C102.404 282.31 100.001 284.7 97.047 284.7H24.622C21.667 284.7 19.264 282.31 19.264 279.372ZM60.849 215.932C81.434 215.932 98.182 199.185 98.182 178.6C98.182 158.015 81.435 141.239 60.849 141.239C40.263 141.239 23.489 157.999 23.489 178.6C23.489 199.201 40.249 215.932 60.849 215.932ZM60.849 157.227C72.619 157.227 82.194 166.815 82.194 178.601C82.194 190.387 72.618 199.946 60.849 199.946C49.08 199.946 39.476 190.371 39.476 178.601C39.476 166.831 49.064 157.227 60.849 157.227Z" fill="currentColor"/>
</svg>
