<svg width="512" height="512" viewBox="0 0 512 512" fill="none" xmlns="http://www.w3.org/2000/svg">
<g clip-path="url(#clip0_362_15)">
<path d="M458.667 490.667H53.3333C39.1937 490.65 25.638 485.025 15.6397 475.027C5.64141 465.029 0.0169371 451.473 0 437.333L0 74.6666C0 45.248 23.936 21.3333 53.3333 21.3333H458.667C488.064 21.3333 512 45.248 512 74.6666V437.333C512 466.752 488.064 490.667 458.667 490.667ZM53.3333 42.6666C35.6907 42.6666 21.3333 57.024 21.3333 74.6666V437.333C21.3333 454.976 35.6907 469.333 53.3333 469.333H458.667C476.309 469.333 490.667 454.976 490.667 437.333V74.6666C490.667 57.024 476.309 42.6666 458.667 42.6666H53.3333Z" fill="currentColor"/>
<path d="M501.333 128H10.6667C7.83769 128 5.12458 126.876 3.12419 124.876C1.12381 122.875 0 120.162 0 117.333C0 114.504 1.12381 111.791 3.12419 109.791C5.12458 107.79 7.83769 106.667 10.6667 106.667H501.333C504.162 106.667 506.875 107.79 508.876 109.791C510.876 111.791 512 114.504 512 117.333C512 120.162 510.876 122.875 508.876 124.876C506.875 126.876 504.162 128 501.333 128ZM96 362.667C94.6011 362.684 93.214 362.408 91.9281 361.857C90.6421 361.306 89.4858 360.491 88.5333 359.467C87.4911 358.528 86.6652 357.374 86.1127 356.085C85.5602 354.796 85.2943 353.402 85.3333 352C85.3333 349.227 86.4 346.453 88.5333 344.512C91.3067 341.525 96 340.48 100.053 342.187C101.333 342.613 102.613 343.467 103.467 344.512C105.6 346.453 106.667 349.227 106.667 352C106.667 354.987 105.6 357.547 103.467 359.467C102.514 360.491 101.358 361.306 100.072 361.857C98.786 362.408 97.399 362.684 96 362.667ZM309.333 309.333H245.333C242.504 309.333 239.791 308.21 237.791 306.209C235.79 304.209 234.667 301.496 234.667 298.667C234.667 295.838 235.79 293.125 237.791 291.124C239.791 289.124 242.504 288 245.333 288H309.333C312.162 288 314.875 289.124 316.876 291.124C318.876 293.125 320 295.838 320 298.667C320 301.496 318.876 304.209 316.876 306.209C314.875 308.21 312.162 309.333 309.333 309.333Z" fill="currentColor"/>
<path d="M309.333 362.667H266.667C249.024 362.667 234.667 348.309 234.667 330.667V266.667C234.667 249.024 249.024 234.667 266.667 234.667H309.333C312.162 234.667 314.875 235.79 316.876 237.791C318.876 239.791 320 242.504 320 245.333C320 248.162 318.876 250.875 316.876 252.876C314.875 254.876 312.162 256 309.333 256H266.667C263.838 256 261.125 257.124 259.124 259.124C257.124 261.125 256 263.838 256 266.667V330.667C256 333.496 257.124 336.209 259.124 338.209C261.125 340.21 263.838 341.333 266.667 341.333H309.333C312.162 341.333 314.875 342.457 316.876 344.458C318.876 346.458 320 349.171 320 352C320 354.829 318.876 357.542 316.876 359.542C314.875 361.543 312.162 362.667 309.333 362.667ZM202.667 362.667C200.824 362.663 199.014 362.184 197.41 361.276C195.807 360.368 194.465 359.061 193.515 357.483L149.333 283.84V352C149.333 354.829 148.21 357.542 146.209 359.542C144.209 361.543 141.496 362.667 138.667 362.667C135.838 362.667 133.125 361.543 131.124 359.542C129.124 357.542 128 354.829 128 352V245.333C128.004 243.001 128.772 240.735 130.187 238.881C131.601 237.026 133.585 235.687 135.833 235.068C138.081 234.448 140.471 234.582 142.635 235.45C144.8 236.318 146.621 237.871 147.819 239.872L192 313.493V245.333C192 242.504 193.124 239.791 195.124 237.791C197.125 235.79 199.838 234.667 202.667 234.667C205.496 234.667 208.209 235.79 210.209 237.791C212.21 239.791 213.333 242.504 213.333 245.333V352C213.339 353.402 213.067 354.792 212.533 356.089C211.999 357.385 211.213 358.563 210.222 359.555C209.23 360.547 208.052 361.332 206.755 361.866C205.459 362.4 204.069 362.672 202.667 362.667ZM384 362.667C381.171 362.667 378.458 361.543 376.458 359.542C374.457 357.542 373.333 354.829 373.333 352V245.333C373.333 242.504 374.457 239.791 376.458 237.791C378.458 235.79 381.171 234.667 384 234.667C386.829 234.667 389.542 235.79 391.543 237.791C393.543 239.791 394.667 242.504 394.667 245.333V352C394.667 354.829 393.543 357.542 391.543 359.542C389.542 361.543 386.829 362.667 384 362.667Z" fill="currentColor"/>
<path d="M416 256H352C349.171 256 346.458 254.876 344.458 252.876C342.457 250.875 341.333 248.162 341.333 245.333C341.333 242.504 342.457 239.791 344.458 237.791C346.458 235.79 349.171 234.667 352 234.667H416C418.829 234.667 421.542 235.79 423.543 237.791C425.543 239.791 426.667 242.504 426.667 245.333C426.667 248.162 425.543 250.875 423.543 252.876C421.542 254.876 418.829 256 416 256Z" fill="currentColor"/>
</g>
<defs>
<clipPath id="clip0_362_15">
<rect width="512" height="512" fill="white"/>
</clipPath>
</defs>
</svg>
