<svg width="512" height="512" viewBox="0 0 512 512" fill="none" xmlns="http://www.w3.org/2000/svg">
<g clip-path="url(#clip0_362_27)">
<path d="M119.32 157.722H385.027V179.868H119.32V157.722Z" fill="currentColor"/>
<path d="M86.1062 368.076C61.6497 368.076 41.8234 348.25 41.8234 323.789V202.009C41.8234 177.548 61.6497 157.723 86.1052 157.723C110.566 157.723 130.391 177.548 130.391 202.009V323.789C130.391 348.249 110.566 368.075 86.1052 368.075L86.1062 368.076ZM86.1062 179.868C73.8775 179.868 63.9643 189.78 63.9643 202.009V323.789C63.9643 336.017 73.8775 345.934 86.1052 345.934C98.3381 345.934 108.25 336.017 108.25 323.789V202.009C108.25 189.781 98.3381 179.868 86.1062 179.868ZM418.24 368.076C393.784 368.076 373.957 348.25 373.957 323.79V202.009C373.957 177.548 393.784 157.723 418.239 157.723C442.7 157.723 462.525 177.548 462.525 202.009V323.789C462.525 348.249 442.7 368.075 418.239 368.075L418.24 368.076ZM418.24 179.868C406.011 179.868 396.098 189.78 396.098 202.009V323.789C396.098 336.017 406.011 345.934 418.239 345.934C430.472 345.934 440.384 336.017 440.384 323.789V202.009C440.384 189.781 430.473 179.868 418.24 179.868Z" fill="currentColor"/>
<path d="M307.531 512.002C283.071 512.002 263.245 492.172 263.245 467.716V412.362H241.104V467.716C241.104 492.172 221.278 512.002 196.818 512.002C172.362 512.002 152.533 492.172 152.533 467.716V412.362H141.464C123.118 412.362 108.25 397.491 108.25 379.148V168.796C108.25 89.3098 172.686 24.8696 252.173 24.8696C331.662 24.8696 396.098 89.3098 396.098 168.796V379.148C396.098 397.491 381.227 412.362 362.885 412.362H351.812V467.716C351.812 492.172 331.987 512.002 307.531 512.002ZM218.959 390.216H285.385V467.715C285.385 479.943 295.303 489.856 307.531 489.856C319.758 489.856 329.671 479.944 329.671 467.715V390.216H362.885C368.999 390.216 373.957 385.262 373.957 379.147V168.796C373.957 101.539 319.435 47.0146 252.172 47.0146C184.915 47.0146 130.391 101.537 130.391 168.796V379.148C130.391 385.262 135.35 390.217 141.464 390.217H174.677V467.716C174.677 479.944 184.59 489.857 196.818 489.857C209.046 489.857 218.959 479.945 218.959 467.716V390.216Z" fill="currentColor"/>
<path d="M207.89 102.369H185.746V124.51H207.89V102.369ZM318.6 102.369H296.458V124.51H318.6V102.369ZM148.952 12.673L167.326 0.324868L197.994 45.9621L179.615 58.3113L148.952 12.673ZM306.116 45.5999L336.76 0L355.146 12.3575L324.503 57.9574L306.116 45.5999Z" fill="currentColor"/>
</g>
<defs>
<clipPath id="clip0_362_27">
<rect width="512" height="512" fill="white"/>
</clipPath>
</defs>
</svg>
