<svg width="512" height="512" viewBox="0 0 512 512" fill="none" xmlns="http://www.w3.org/2000/svg">
<g clip-path="url(#clip0_341_157)">
<path d="M318.992 378.043C299.516 388.095 277.917 393.34 256 393.34C180.149 393.34 118.66 331.852 118.66 256C118.66 180.149 180.149 118.66 256 118.66C331.851 118.66 393.34 180.149 393.34 256C393.34 278.374 387.874 300.41 377.417 320.19" stroke="#fff" stroke-width="22" stroke-miterlimit="22.9256" stroke-linecap="round" stroke-linejoin="round"/>
<path d="M429.346 373.051C445.129 349.734 456.015 323.456 461.345 295.808L491.041 290.858C496.443 289.958 501 286.377 501 280.9V231.102C501 225.625 496.444 222.044 491.042 221.143L461.346 216.194C456.016 188.546 445.13 162.268 429.347 138.951L446.848 114.45C450.032 109.993 450.721 104.239 446.848 100.366L411.636 65.155C407.763 61.281 402.009 61.971 397.552 65.155L373.051 82.655C349.735 66.8705 323.456 55.9843 295.808 50.656L290.858 20.96C289.957 15.557 286.377 11.001 280.899 11.001H231.102C225.624 11.001 222.044 15.557 221.143 20.96L216.193 50.656C188.545 55.9836 162.266 66.8699 138.95 82.655L114.449 65.154C109.992 61.971 104.238 61.281 100.365 65.155L65.153 100.367C61.28 104.24 61.969 109.993 65.153 114.451L82.654 138.952C66.871 162.269 55.9849 188.547 50.655 216.195L20.959 221.145C15.557 222.045 11.001 225.626 11.001 231.103V280.901C11.001 286.378 15.558 289.959 20.959 290.859L50.655 295.809C55.9849 323.457 66.871 349.735 82.654 373.052L65.153 397.553C61.97 402.011 61.28 407.764 65.153 411.638L100.365 446.849C104.238 450.723 109.992 450.033 114.449 446.849L138.95 429.348C162.266 445.133 188.545 456.019 216.193 461.347L221.143 491.043C222.044 496.446 225.624 501.003 231.102 501.003H280.899C286.377 501.003 289.957 496.447 290.858 491.044L295.807 461.348C323.456 456.02 349.734 445.134 373.051 429.349" stroke="currentColor" stroke-width="22" stroke-miterlimit="22.9256" stroke-linecap="round" stroke-linejoin="round"/>
<path fill-rule="evenodd" clip-rule="evenodd" d="M256 178.66C298.714 178.66 333.34 213.286 333.34 256C333.34 264.39 331.999 272.466 329.528 280.031L490.791 441.294C504.402 454.905 504.403 477.179 490.791 490.791C477.179 504.403 454.905 504.402 441.294 490.791L280.031 329.528C272.273 332.06 264.162 333.347 256.001 333.34C213.287 333.34 178.661 298.714 178.661 256C178.661 247.61 180.002 239.534 182.473 231.969L224.167 273.663L270.129 270.127L273.665 224.165L231.972 182.472C239.73 179.94 247.84 178.653 256 178.66Z" stroke="currentColor" stroke-width="22" stroke-miterlimit="22.9256" stroke-linecap="round" stroke-linejoin="round"/>
</g>
<defs>
<clipPath id="clip0_341_157">
<rect width="512" height="512" fill="white"/>
</clipPath>
</defs>
</svg>
