<svg width="512" height="512" viewBox="0 0 512 512" fill="none" xmlns="http://www.w3.org/2000/svg">
<g clip-path="url(#clip0_337_2)">
<path d="M483.832 28.1641C465.062 9.3892 442.447 0 416.005 0H96.0029C69.5609 0 46.946 9.3892 28.1676 28.1641C9.39271 46.9425 0.00350952 69.5562 0.00350952 95.9994V415.998C0.00350952 442.439 9.39271 465.055 28.1676 483.834C46.946 502.612 69.5609 512.001 96.0029 512.001H416.002C442.444 512.001 465.059 502.612 483.829 483.834C502.607 465.055 511.996 442.44 511.996 415.998V95.9994C511.995 69.5562 502.606 46.939 483.832 28.1641ZM391.669 197.002C391.892 199.002 392.006 201.996 392.006 206.003C392.006 224.671 389.281 243.393 383.839 262.166C378.397 280.948 370.062 298.947 358.835 316.168C347.62 333.388 334.231 348.615 318.677 361.836C303.12 375.052 284.456 385.612 262.674 393.495C240.902 401.39 217.564 405.338 192.677 405.338C154.014 405.338 118.236 394.886 85.3458 374.006C90.679 374.669 96.2376 375.004 102.012 375.004C134.236 375.004 163.236 365.004 189.015 344.999C173.906 344.783 160.403 340.12 148.516 330.999C136.624 321.889 128.349 310.335 123.681 296.334C129.457 297.222 133.79 297.662 136.678 297.662C141.567 297.662 147.235 296.775 153.677 295.001C137.456 291.885 123.791 283.837 112.68 270.837C101.566 257.835 96.0111 243.003 96.0111 226.338V225.671C107.786 231.223 118.897 234.111 129.343 234.337C109.12 220.778 99.0093 201.337 99.0093 176.004C99.0093 163.558 102.229 151.781 108.674 140.67C126.228 162.227 147.565 179.447 172.673 192.335C197.783 205.222 224.674 212.448 253.339 214.002C252.23 209.78 251.673 204.445 251.673 198.002C251.673 178.666 258.507 162.169 272.175 148.5C285.838 134.833 302.34 127.998 321.671 127.998C342.12 127.998 359.124 135.333 372.677 150.001C388.012 147.112 402.907 141.443 417.347 133.002C411.793 150.108 401.453 163.11 386.349 171.999C400.789 169.996 414.229 166.22 426.672 160.665C417.34 174.886 405.669 186.997 391.669 197.002Z" fill="black"/>
</g>
<rect x="0.5" y="0.5" width="511" height="511" stroke="black"/>
<defs>
<clipPath id="clip0_337_2">
<rect width="512" height="512" fill="white"/>
</clipPath>
</defs>
</svg>
