<svg width="512" height="512" viewBox="0 0 512 512" fill="none" xmlns="http://www.w3.org/2000/svg">
<path fill-rule="evenodd" clip-rule="evenodd" d="M71.851 370.45L105.269 278.351L182.632 251.588C189.772 249.119 194.889 250.619 197.152 255.802L198.06 258.812C198.911 263.718 197.1 269.621 189.279 272.527L141.614 290.287C140.916 290.548 140.286 290.961 139.768 291.496C139.25 292.032 138.859 292.676 138.622 293.382L120.197 346.795C118.826 350.844 122.89 354.632 126.838 353.004C142.336 346.607 155.201 354.25 166.348 362.312C180.28 372.382 187.57 392.532 186.672 418.029H165.869C166.852 396.717 159.11 387.132 152.121 382.819C137.31 373.699 112.762 379.658 81.131 400.057C80.2949 400.593 79.6395 401.368 79.25 402.282L55.051 458.126H34.661L71.851 370.45ZM25.169 468.132H151.391V491H25.169V468.132ZM161.391 428.03V491H287.6V428.03H161.391ZM396.721 66.435V21H486.831L469.081 38.75C466.339 41.492 466.346 45.95 469.081 48.685L486.831 66.435H396.721ZM423.822 491H297.6V367.219H423.823V491H423.822ZM403.033 124.26C400.912 118.329 396.561 114.331 394.374 113.221L388.956 119.176V21H378.956V130.167L326.949 187.329C325.865 188.534 301.863 204.185 298.31 206.599C297.147 207.389 221.003 237.263 212.763 240.52C207.862 242.458 205.92 247.98 206.729 252.81L207.632 255.75C210.134 261.248 216.173 262.692 224.372 259.658L286.213 236.771C289.538 235.533 293.063 238.076 292.939 241.63L291.711 278.458C291.685 279.266 291.462 280.056 291.062 280.758L213.163 418.03H235.011L291.97 322.568C292.05 322.441 292.134 322.319 292.21 322.201C302.84 307.489 330.383 306.2 343.473 307.578C344.7 307.709 345.835 308.29 346.66 309.208C347.485 310.125 347.941 311.316 347.941 312.55V357.219H370.381V294.249C370.381 291.354 367.466 285.599 362.77 281.834C358.465 278.382 352.503 276.78 349.3 276.78H344.352C343.026 276.78 341.754 276.253 340.816 275.316C339.879 274.378 339.352 273.106 339.352 271.78V209.412C339.353 208.164 339.819 206.962 340.66 206.04L378.956 164.064V357.219H388.956V153.104L399.36 141.701C404.082 136.532 405.309 130.662 403.033 124.26ZM289.58 174.282C271.42 174.282 256.642 159.499 256.642 141.344C256.642 123.17 271.42 108.391 289.58 108.391C307.74 108.391 322.519 123.169 322.519 141.344C322.519 159.499 307.74 174.282 289.58 174.282ZM148.401 244.829C166.561 244.829 181.34 230.051 181.34 211.89C181.34 193.73 166.561 178.952 148.401 178.952C130.231 178.952 115.462 193.73 115.462 211.89C115.462 230.051 130.231 244.829 148.401 244.829Z" fill="black"/>
</svg>
